<svg id="레이어_1" data-name="레이어 1" xmlns="http://www.w3.org/2000/svg" viewBox="0 0 1440 375"><defs><style>.cls-1{fill:#fcfcfc;}.cls-2{fill:#ddd;}.cls-3,.cls-7{fill:#fff;}.cls-4{fill:#efefef;}.cls-5{fill:none;}.cls-5,.cls-7{stroke:#000;}.cls-5,.cls-7,.cls-9{stroke-miterlimit:10;}.cls-6{fill:#f7f7f7;}.cls-8{fill:#070705;}.cls-9{stroke:#fff;}.cls-10{fill:#e5e5e3;}.cls-11{fill:#fffde3;opacity:0.27;}</style></defs><rect class="cls-1" width="1440" height="375"/><path class="cls-2" d="M844.36,96.53c-4.26,0-7.72-3.18-7.72-7.1,0-3.74,3.25-6.46,7.72-6.46s7.73,2.72,7.73,6.46C852.09,93.35,848.62,96.53,844.36,96.53Z"/><path d="M844.36,83.47c4.19,0,7.23,2.51,7.23,6,0,3.64-3.24,6.6-7.23,6.6s-7.22-3-7.22-6.6c0-3.45,3-6,7.22-6m0-1c-4.54,0-8.22,2.77-8.22,7s3.68,7.6,8.22,7.6,8.23-3.4,8.23-7.6-3.68-7-8.23-7Z"/><path class="cls-2" d="M831.21,96.53c-3.64,0-7.05-2.76-7.14-5.8a5.34,5.34,0,0,1,1.48-4A6.27,6.27,0,0,1,830.06,85a6.35,6.35,0,0,1,1.07.09c3,.45,6.41,2.23,6.41,5.74C837.54,94,834.7,96.53,831.21,96.53Z"/><path d="M830.06,85.46h0a6.74,6.74,0,0,1,1,.08c2.76.43,6,2.06,6,5.25,0,2.89-2.62,5.24-5.83,5.24-3.39,0-6.56-2.53-6.64-5.31a4.82,4.82,0,0,1,1.34-3.6,5.78,5.78,0,0,1,4.15-1.66m0-1c-3.44,0-6.6,2.38-6.49,6.29.1,3.44,3.87,6.28,7.64,6.28s6.83-2.8,6.83-6.24-3.1-5.66-6.83-6.24a7.43,7.43,0,0,0-1.15-.09Z"/><path class="cls-2" d="M820.54,108c-4.07-.07-6.9-3.93-7-7.48a7.88,7.88,0,0,1,2-5.81A5.73,5.73,0,0,1,819.74,93l.75,0a7.5,7.5,0,0,1,7,7.48c0,4.12-3.07,7.47-6.85,7.47Z"/><path d="M819.74,93.51h0l.7,0a7,7,0,0,1,6.57,7c0,3.84-2.85,7-6.35,7h-.11c-3.78-.07-6.41-3.67-6.5-7a7.48,7.48,0,0,1,1.8-5.45,5.31,5.31,0,0,1,3.89-1.53m0-1c-4.29,0-6.8,3.41-6.69,8,.1,3.94,3.27,7.9,7.48,8h.13c4.07,0,7.35-3.61,7.35-8a8,8,0,0,0-7.48-8,7.09,7.09,0,0,0-.79,0Z"/><path class="cls-2" d="M818.15,122.58a7,7,0,1,1,7-7A7,7,0,0,1,818.15,122.58Z"/><path d="M818.15,109.12a6.48,6.48,0,1,1-6.48,6.48,6.49,6.49,0,0,1,6.48-6.48m0-1a7.48,7.48,0,1,0,7.48,7.48,7.48,7.48,0,0,0-7.48-7.48Z"/><path class="cls-3" d="M829.09,134.09c-4,0-8.06-3.79-8.06-7.51,0-4,4-6.45,7.63-6.45a7,7,0,0,1,7,7C835.64,131.09,832.82,134.09,829.09,134.09Z"/><path d="M828.66,120.63a6.48,6.48,0,0,1,6.48,6.48c0,3.69-2.6,6.48-6,6.48-3.75,0-7.56-3.54-7.56-7,0-3.68,3.7-6,7.13-6m0-1c-4.13,0-8.13,2.82-8.13,7s4.43,8,8.56,8,7-3.35,7-7.48a7.48,7.48,0,0,0-7.48-7.48Z"/><path class="cls-3" d="M843.81,137.65a7.83,7.83,0,0,1-7.58-7.29,7.65,7.65,0,0,1,7.57-7.91,7.81,7.81,0,0,1,7.56,7.93,7.19,7.19,0,0,1-2.14,5.06,7.29,7.29,0,0,1-5.19,2.22Z"/><path d="M843.8,123a7.34,7.34,0,0,1,7.07,7.44,7,7,0,0,1-6.84,6.77h-.2a7.33,7.33,0,0,1-7.1-6.82A7.14,7.14,0,0,1,843.8,123m0-1a8.14,8.14,0,0,0-8.07,8.43,8.32,8.32,0,0,0,8.07,7.77H844a8,8,0,0,0,7.84-7.78A8.29,8.29,0,0,0,843.8,122Z"/><path class="cls-3" d="M856.83,132a7.55,7.55,0,0,1,0-15.08,7.55,7.55,0,1,1,0,15.08Z"/><path d="M856.83,117.38a7,7,0,1,1,0,14.08,7,7,0,0,1,0-14.08m0-1a8,8,0,0,0,0,16.08c4.26,0,8.32-3.6,8.32-8s-4.06-8-8.32-8Z"/><path class="cls-3" d="M862.48,118.5a7.55,7.55,0,1,1,7.93-7.53,7,7,0,0,1-2,5.12,8.28,8.28,0,0,1-5.93,2.41Z"/><path d="M862.48,103.92a7.31,7.31,0,0,1,7.43,7.07,6.52,6.52,0,0,1-1.85,4.75,7.82,7.82,0,0,1-5.58,2.26,7.05,7.05,0,1,1,0-14.08m0-1a8,8,0,1,0,0,16.08h0c4.66,0,8.54-3.41,8.42-8a8.32,8.32,0,0,0-8.43-8Z"/><path class="cls-3" d="M856.83,105a7.55,7.55,0,1,1,0-15.08c4.47,0,8.55,3.77,8.55,7.91S861,105,856.83,105Z"/><path d="M856.83,90.43c4.14,0,8,3.6,8,7.41,0,4-4.16,6.67-8,6.67a7,7,0,1,1,0-14.08m0-1a8,8,0,1,0,0,16.08c4.66,0,9-3.23,9-7.67s-4.39-8.41-9-8.41Z"/><ellipse class="cls-3" cx="840.57" cy="109.67" rx="21.92" ry="21.09"/><path d="M840.57,89.08c11.81,0,21.41,9.24,21.41,20.59s-9.6,20.59-21.41,20.59-21.42-9.24-21.42-20.59,9.61-20.59,21.42-20.59m0-1c-12.38,0-22.42,9.67-22.42,21.59s10,21.59,22.42,21.59S863,121.6,863,109.67s-10-21.59-22.41-21.59Z"/><ellipse class="cls-4" cx="839.51" cy="106.84" rx="19.58" ry="17.58"/><path class="cls-5" d="M832.25,105.07s6.6-1.2,7.77,4.6"/><path class="cls-5" d="M839.12,121.3s5.92-2,5.18,3.89"/><path class="cls-5" d="M852.59,104.05s5.26.21,5.53,4.63"/><path class="cls-5" d="M832.43,93.23s5.79-1.72,5.61,3.44"/><path class="cls-5" d="M822,115.9a3.61,3.61,0,0,1,4.34,3.3"/><path class="cls-6" d="M884.13,252.77l-6.75,11.13a111.47,111.47,0,0,0-26.61,2.59c-60.89,13-80.67-1.34-80.67-1.34s-32.58-15.72-62.45-5-29.48,8.35-83,1c-19.9-2.74-34.12.54-44.13,5.73l-30.73-46.54,31.8,10.37,8.15-21.41L606,230l5-12.38s19.78,12.44,20.95,14.41,16.28-4.71,16.28-4.71l3.88,6.69L658,220l8.53,21.75,15.13-14.05,13.58,12.4,4.26-11.4.93-1.07,22.34,14.45,19.4-30.1,12.41,22.41L776.69,227l6.2,7.69L800,212l6.21,11.37L834.09,206l12.42,30.43L867.84,229l1.55,21.08Z"/><path class="cls-5" d="M581.62,267l-30.73-54,31.8,12,8.15-24.82,16.29,24.05,5-14.35s19.78,14.41,20.94,16.71,16.29-5.46,16.29-5.46l3.88,7.75,5.82-16.29,8.53,25.21,15.13-16.29,13.58,14.39,4.26-13.22"/><polyline class="cls-5" points="700.6 220.76 723.88 238.21 743.27 203.3 755.68 229.29 777.79 220.76 784 229.68 801.06 203.3 807.27 216.49 835.19 196.32 847.61 231.62 868.94 223.08 870.49 247.52 885.23 250.62 878.48 263.53"/><path class="cls-5" d="M559.81,293.68s12.41-41.89,65.93-33.36,53.14,11.28,83-1.15S771.2,265,771.2,265s19.78,16.68,80.67,1.56c20.78-5.17,37.72-3.19,51,1.65"/><path class="cls-4" d="M608.31,160.55c1.15,3.18,3.18,7.12,6.43,6.63,3.7-.57,3.76-4.46,2.69-9.11"/><path class="cls-7" d="M613.3,167.25s12.69,57.47-1.36,93.38l6.93-.28c7.37-64.37-3.56-93.63-3.56-93.63"/><path class="cls-5" d="M607.62,160.58c1.15,3.18,3.18,7.12,6.43,6.62,3.7-.56,3.76-4.45,2.69-9.1"/><path class="cls-5" d="M620.32,127.6a25.18,25.18,0,0,1,3.6,9.09c2.14,11.38-3.49,22-12.58,23.71s-18.2-6.12-20.35-17.51a25.84,25.84,0,0,1-.43-5.83"/><path class="cls-5" d="M621.38,129.41s-9.62-21.83-14.14-19.33-2.14,20.07-2.36,18.92-6.69-10.13-9.86-11.15-4.49,16.45-4.46,19.21"/><path class="cls-5" d="M595,132.71s11.41-3.39,13.09,9.31a4.14,4.14,0,0,1-3.32,3.5c-3.19.87,4.19,1.55,4.19,1.55"/><circle cx="613.28" cy="136.69" r="1.97"/><circle class="cls-8" cx="601.96" cy="140.31" r="1.97"/><path class="cls-5" d="M610.53,129.85c-.91-.77,2.51-1.82,4.43-.18"/><path class="cls-5" d="M605.53,151.92s10.26,0,10.13-5.13"/><path class="cls-7" d="M621.16,205.88c1.06-.49,5.76-14.77,21-13.63,0,0,1,16-19.07,19.55l-1.74.07"/><path class="cls-7" d="M616.77,189a31.65,31.65,0,0,0-14.46-6.1c-8.3-1.06,6.48,13.68,14.75,8.64"/><path class="cls-5" d="M604.53,118s-.57-5.43-2.62-7"/><path class="cls-5" d="M604.54,128.25s-1.93-10.3-3.11-11.08"/><path class="cls-5" d="M597.77,119.77c-.39-.35-1.09-5.54-1.84-5.76"/><path class="cls-3" d="M601.92,110.56a.26.26,0,0,1-.27-.26.28.28,0,0,1,.26-.29h0a.29.29,0,0,1,.29.27.28.28,0,0,1-.27.28Z"/><path d="M601.92,109.51h0a.77.77,0,0,0-.74.81.76.76,0,0,0,.77.74h0a.78.78,0,0,0,0-1.55Z"/><path class="cls-3" d="M595.9,113.51a.28.28,0,0,1-.28-.26.29.29,0,0,1,.27-.29h0a.29.29,0,0,1,.29.27.27.27,0,0,1-.08.19.25.25,0,0,1-.19.09Z"/><path d="M595.9,112.46h0a.79.79,0,0,0-.75.81.77.77,0,0,0,.78.74h0a.78.78,0,0,0,.75-.8.79.79,0,0,0-.78-.75Z"/><path class="cls-3" d="M601,117.47a.28.28,0,0,1,0-.56h0a.29.29,0,0,1,.29.27.28.28,0,0,1-.26.29Z"/><path d="M601,116.41h0a.78.78,0,0,0,0,1.56h0a.78.78,0,0,0,0-1.56Z"/><path class="cls-3" d="M822.21,272.94c-1.7-1.25-1.75-9.25-1.37-14.09l.07-.82-.76.31a12.17,12.17,0,0,1-4.69.89c-8.42,0-18.15-7.47-21.61-14.19-1.48-2.87-1.72-5.39-.67-7.16,20.41,6.69,25.52,12.74,25.57,12.8l.31.39.39-.31c.17-.13,17-13.36,33.28-13.36a25.51,25.51,0,0,1,8.94,1.53c-1.56,3.06-10.8,19.73-27.57,19.73a29.22,29.22,0,0,1-9.12-1.53,1.06,1.06,0,0,0-.34-.06,1,1,0,0,0-.79.43c-1.2,1.73.82,10.65,2.5,15.44Z"/><path d="M852.72,236.9v1a25.27,25.27,0,0,1,8.23,1.31c-2.12,4-11.12,19-26.86,19a28.61,28.61,0,0,1-9-1.51,1.67,1.67,0,0,0-.49-.08,1.46,1.46,0,0,0-1.2.65c-1.36,2,.7,10.63,2.21,15.22H822.4c-1.08-1.12-1.57-7.12-1.06-13.55l.13-1.63-1.51.62a11.6,11.6,0,0,1-4.5.85c-8.24,0-17.77-7.33-21.17-13.91-.78-1.51-1.84-4.22-.87-6.33,19.86,6.56,24.9,12.45,24.94,12.51l.63.77.77-.62c.17-.13,16.89-13.25,33-13.25v-1m0,0c-16.63,0-33.59,13.47-33.59,13.47s-5-6.2-26.17-13.09c-4.85,6.82,10,22.45,22.49,22.45a12.64,12.64,0,0,0,4.88-.92s-1,13.08,1.73,14.63h5c-2-5.34-4.23-15.87-2.42-15.87a.57.57,0,0,1,.18,0,29.62,29.62,0,0,0,9.28,1.56c18.92,0,28.26-20.5,28.26-20.5a25.86,25.86,0,0,0-9.63-1.76Z"/><path class="cls-3" d="M823.12,242.86a24.66,24.66,0,0,1-24.64-24.64c0-10.92,10.61-16.05,20.86-21,2.44-1.18,5-2.4,7.29-3.68a7.18,7.18,0,0,1,3.48-.93c6.76,0,14,10.59,17.66,25.75a16.69,16.69,0,0,1-3.53,14.48A27.76,27.76,0,0,1,823.12,242.86Z"/><path d="M830.11,193.09h0c6.52,0,13.59,10.43,17.18,25.37a16.24,16.24,0,0,1-3.44,14,27.22,27.22,0,0,1-20.73,9.85A24.17,24.17,0,0,1,799,218.22c0-10.61,10-15.45,20.58-20.57,2.44-1.18,5-2.41,7.31-3.69a6.71,6.71,0,0,1,3.24-.87m0-1a7.71,7.71,0,0,0-3.72,1C814.21,199.75,798,204.34,798,218.22a25.14,25.14,0,0,0,25.14,25.14c13.88,0,28.38-11.64,25.14-25.14-3.6-15-10.82-26.13-18.15-26.13Z"/><path class="cls-7" d="M823.35,208.25s2.6,11.48,0,14.46-1.07,5,0,4.36"/><path class="cls-9" d="M816.44,214.61a2.48,2.48,0,0,1,.29,1.15,2.41,2.41,0,1,1-4.82,0,2.37,2.37,0,0,1,.29-1.15"/><path class="cls-9" d="M836.32,214.17a2.34,2.34,0,0,1,.29,1.15,2.41,2.41,0,1,1-4.82,0,2.45,2.45,0,0,1,.29-1.15"/><path class="cls-7" d="M819.14,233.44s13.75-1.84,14.57-4.48-2.06,11.25-9.75,9.64"/><line class="cls-7" x1="810.24" y1="214.61" x2="818.39" y2="214.61"/><line class="cls-7" x1="830.13" y1="214.17" x2="838.28" y2="214.17"/><line class="cls-7" x1="827.19" y1="186.83" x2="826.49" y2="176.16"/><line class="cls-7" x1="848.72" y1="200.44" x2="858.4" y2="194.75"/><path class="cls-7" d="M825.78,252.19s19.62-8.93,25.71-8.83"/><polyline class="cls-10" points="684.57 98.73 686.9 113.04 654.4 114.91 652.93 99.03"/><polygon class="cls-6" points="657.64 158.76 694.61 159.75 726.83 154.49 758.7 142.23 781.26 178.77 771.9 227.24 753.47 244.02 727.12 255.39 693.66 251.68 676.91 244.19 652.99 203.63 657.64 158.76"/><path class="cls-11" d="M689.61,157.58s3.71,22.53,18.62,20.44,26-6.27,21.81-26.08-21.65-13-21.65-13S690.57,138.69,689.61,157.58Z"/><polygon class="cls-5" points="655.44 152.24 694.72 153.3 728.95 147.71 762.82 134.68 786.79 173.51 776.84 225.01 757.25 242.83 729.26 254.91 693.72 250.97 675.91 243.01 650.49 199.92 655.44 152.24"/><path class="cls-5" d="M731.8,250c1-.91,8.06-10.32,8.06-10.32l26.93-11.91"/><polyline class="cls-5" points="725.59 251.01 715.88 244.35 682.73 243.4"/><line class="cls-5" x1="727.48" y1="150.21" x2="717.11" y2="240.4"/><line class="cls-5" x1="697.17" y1="155.17" x2="738.66" y2="236.88"/><line class="cls-5" x1="770.16" y1="158.95" x2="739.82" y2="195.81"/><line class="cls-5" x1="660.28" y1="161.2" x2="654.58" y2="197.38"/><line class="cls-5" x1="679.5" y1="238.93" x2="708.23" y2="227.35"/><line class="cls-5" x1="719.79" y1="225.46" x2="728.92" y2="223.97"/><line class="cls-5" x1="720.26" y1="243.63" x2="736.45" y2="240.99"/><line class="cls-5" x1="737.69" y1="222.54" x2="770.49" y2="220.61"/><line class="cls-5" x1="659.58" y1="186.69" x2="683" y2="200.73"/><line class="cls-5" x1="694.72" y1="153.3" x2="703.73" y2="137.22"/><line class="cls-5" x1="728.95" y1="147.7" x2="715.91" y2="135.23"/><line class="cls-5" x1="762.81" y1="134.68" x2="726.34" y2="131.77"/><line class="cls-5" x1="655.44" y1="152.24" x2="688.12" y2="138.02"/><path class="cls-5" d="M724.43,120.09l1.91,11.68S715,137.88,688.12,138l-1.91-11.68"/><polyline class="cls-5" points="658.62 116.22 677.66 125.3 707.38 125.12 733.42 116.99 750.32 103.35 747.57 86.55 724.43 78.84 701.19 80.01 676.54 84.8 655.67 98.21 658.72 116.83"/><polyline class="cls-5" points="655.67 98.21 687.47 95.88 701.19 80.01 718.65 92.41 747.57 86.55"/><line class="cls-5" x1="718.65" y1="92.41" x2="687.47" y2="95.88"/><polyline class="cls-5" points="687.73 97.46 689.65 115.28 706.35 125.29 721.44 109.45 720.13 93.79"/><line class="cls-5" x1="722.66" y1="109.25" x2="747.89" y2="103.06"/><line class="cls-5" x1="687.23" y1="115.04" x2="660.48" y2="115.79"/><path class="cls-5" d="M718,95.77S706.1,100.46,689.61,99"/><path class="cls-5" d="M719,109.85s-13.38,5.31-26.91,4.4"/><path class="cls-5" d="M673.91,122.22c.34-.18,15.14-3.6,15.14-3.6"/><line class="cls-5" x1="735.5" y1="112.85" x2="721.45" y2="113.32"/><polyline class="cls-1" points="730.59 150.3 761.08 137.25 771.04 153.43 737.73 193.94"/><path class="cls-6" d="M690,101.24s17.61.71,28.73-4.69l1.35,12.09s-19.86,6.22-28.12,4.6"/><polyline class="cls-4" points="688.13 245.89 693.63 248.93 724.29 252.97 714.45 245.52"/><path d="M609.65,291v-3.52h18.07V291Zm9.13,11.21c-4.46,0-7.53-2.4-7.53-5.4s3-5.32,7.53-5.32,7.48,2.4,7.48,5.32S623.16,302.25,618.78,302.25Zm4.77,10.86c-6.62,0-10.73-1.84-10.73-5.18s4.11-5.09,10.73-5.09,10.65,1.85,10.65,5.09S630.16,313.11,623.55,313.11Zm-9.41-30.32h9.3v3.48h-9.3ZM618.78,299c1.67,0,2.92-.94,2.92-2.13s-1.25-2.09-2.92-2.09-2.89,1-2.89,2.09S617.07,299,618.78,299Zm-1.26,9c0,1,2.16,1.71,6,1.71s6.06-.7,6.06-1.71-2.16-1.64-6.06-1.64S617.52,307,617.52,308Zm20.3-9.71h-3.69v4.52h-4.59V282.16h4.59v5.95h3.69v3.73h-3.69v2.71h3.69Z"/><path d="M651.51,313.22v-10.8H639.88v-3.65h28v3.65H656.07v10.8Zm13.41-16.75c-4.74-.7-9.4-3.41-11-6.83-1.68,3.42-6.27,6.2-11,6.86l-1.81-3.69c5.29-.55,10.37-3.76,10.37-8.56v-1.43h4.81v1.43c0,4.8,5,7.87,10.37,8.46Z"/><path d="M686.3,301.21v4.52H698v3.62H670v-3.62h11.73v-4.52h-8.21V290.62H690v-3H673.49v-3.7h21.07v10.38H678.12v3.24h17.24v3.66Z"/><path d="M709.29,309.39v-3.62h10v-7.28h4.59v7.28h13.44v3.62Zm25-21.24a75.91,75.91,0,0,1-1.53,14.41c-1.43-.17-2.93-.35-4.32-.59a52.59,52.59,0,0,0,.94-5.92c-5.75.35-11.53.66-17.24,1-.17-1.26-.38-2.58-.52-3.87l18.07-.52c.07-1,.07-1.92.07-2.75v-1.12H712.88v-3.72h21.38C734.29,286.06,734.33,287.21,734.33,288.15Z"/><path d="M747.74,302.08a50.43,50.43,0,0,0,10.48-.87c.14,1.25.31,2.47.49,3.76a66.14,66.14,0,0,1-12.5,1c-1.71,0-3.34-.07-5-.07v-21h14.14v3.63h-9.5V302C746.45,302.08,747.08,302.08,747.74,302.08Zm12.5,11.1v-31h4.6v31Z"/><path d="M779.33,287.9h16.43v3.49h-5.64c.7,2.78,3.76,4.8,6.45,5.36-.67,1.18-1.4,2.33-2.09,3.51a11.12,11.12,0,0,1-6.83-5.36c-1,2.41-4.07,4.84-7.1,5.75-.73-1.15-1.5-2.33-2.2-3.52,3.31-.9,6-2.89,6.65-5.74h-5.67Zm24.13,13.34v3.59h-8.18c.55,3.2,4.94,4.94,9.54,5.08L803,313.53c-4.14-.21-8.22-1.88-10.06-4.8-1.67,2.89-5.71,4.42-9.86,4.73-.59-1.18-1.21-2.37-1.77-3.55,4.32-.17,8.67-1.85,9.3-5.08h-7.91v-3.59Zm-20.33-18h9v3.28h-9ZM803,294v6h-4.56V282.16H803v8.08h4.25V294Z"/><path d="M811.23,307.82l-2.61-3.62c6.79-3.17,11.14-9.12,11.77-15.08h-9.86v-3.76h14.73C825,294.42,821.29,302.28,811.23,307.82ZM830,313.18v-31h4.63v31Z"/></svg>