<svg id="레이어_1" data-name="레이어 1" xmlns="http://www.w3.org/2000/svg" xmlns:xlink="http://www.w3.org/1999/xlink" viewBox="0 0 1440 375"><defs><style>.cls-1,.cls-16{fill:none;}.cls-2{fill:#ff747c;}.cls-12,.cls-14,.cls-20,.cls-3,.cls-7{fill:#fff;}.cls-4{fill:#ffe9eb;}.cls-5{fill:#ffb3ba;}.cls-6{fill:#ffd9de;}.cls-16,.cls-20,.cls-7{stroke:#000;}.cls-16,.cls-7{stroke-miterlimit:10;}.cls-8{fill:#ff394c;}.cls-12,.cls-9{font-size:5.31px;}.cls-12,.cls-14,.cls-9{font-family:AppleSDGothicNeo-ExtraBold-KSCpc-EUC-H, Apple SD Gothic Neo;}.cls-10{letter-spacing:-0.01em;}.cls-11{letter-spacing:-0.01em;}.cls-13{fill:#ef3345;}.cls-14{font-size:4.48px;}.cls-15{fill:#e20e2d;}.cls-17{fill:#ff7b7b;}.cls-18{fill:#ffe6e6;}.cls-19{fill:#ff718c;}.cls-20{stroke-linecap:round;stroke-linejoin:round;}.cls-21{opacity:0.36;}.cls-22{clip-path:url(#clip-path);}.cls-23{opacity:0.11;}</style><clipPath id="clip-path"><rect class="cls-1" x="1519.68" y="-38.59" width="751.42" height="359.62"/></clipPath></defs><rect class="cls-2" x="-15.46" y="-3.37" width="1487.42" height="385.38"/><path class="cls-3" d="M628.49,300.53v-3.62h28v3.62Zm14-17c6.86,0,11.07,2.55,11.07,6s-4.21,6.06-11.07,6.06-11-2.55-11-6.06S635.63,283.5,642.49,283.5Zm-10.45,30V302.79h20.9v10.73Zm10.45-21.35c3.87,0,6.27-1,6.27-2.61s-2.44-2.58-6.27-2.58-6.2,1.12-6.2,2.58S638.66,292.17,642.49,292.17Zm5.88,14.11H636.64V310h11.73Z"/><path class="cls-3" d="M666.8,284.48c4.67,0,8.18,3,8.18,7.41s-3.51,7.53-8.18,7.53-8.11-3.1-8.11-7.53S662.2,284.48,666.8,284.48Zm16.23,18V313.9h-4.6v-7.83H662.52v-3.62Zm-16.23-6.93a3.46,3.46,0,0,0,3.76-3.63,3.55,3.55,0,0,0-3.76-3.69,3.49,3.49,0,0,0-3.66,3.69A3.43,3.43,0,0,0,666.8,295.52ZM683,293.88v6.82H678.4V282.84H683v7.28h4.18v3.76Z"/><path class="cls-3" d="M688.74,309.93v-3.69h28v3.69Zm14-8.25c-7,0-11.52-3.52-11.52-8.43s4.56-8.42,11.52-8.42,11.56,3.48,11.56,8.42S709.74,301.68,702.74,301.68Zm0-13.23c-4.18,0-6.86,1.88-6.86,4.84s2.68,4.77,6.86,4.77,6.9-1.92,6.9-4.77S707,288.45,702.74,288.45Z"/><path class="cls-3" d="M735.16,301.89v4.52H746.9V310h-28v-3.63H730.6v-4.52h-8.21V291.3h16.43v-3H722.35v-3.69h21.07V295H727v3.24h17.24v3.66Z"/><path class="cls-3" d="M758.15,310.07v-3.62h10v-7.28h4.59v7.28h13.44v3.62Zm25-21.24a76.12,76.12,0,0,1-1.53,14.42c-1.43-.18-2.93-.35-4.32-.6a52.22,52.22,0,0,0,.94-5.92c-5.75.35-11.53.67-17.24,1-.17-1.25-.38-2.58-.52-3.87l18.07-.52c.07-1,.07-1.91.07-2.75v-1.11H761.74v-3.73h21.38C783.15,286.74,783.19,287.89,783.19,288.83Z"/><path class="cls-3" d="M796.6,302.76a50.43,50.43,0,0,0,10.48-.87c.14,1.25.32,2.47.49,3.76a65.32,65.32,0,0,1-12.5,1c-1.71,0-3.34-.07-5-.07v-21h14.14v3.62h-9.5v13.47C795.31,302.76,795.94,302.76,796.6,302.76Zm12.5,11.11v-31h4.6v31Z"/><path class="cls-3" d="M828.19,288.59h16.44v3.48H839c.7,2.78,3.77,4.8,6.45,5.36-.67,1.18-1.4,2.33-2.09,3.52a11.19,11.19,0,0,1-6.83-5.36c-1,2.4-4.07,4.84-7.1,5.74-.73-1.15-1.5-2.33-2.2-3.52,3.31-.9,6-2.89,6.66-5.74h-5.68Zm24.13,13.33v3.59h-8.18c.55,3.2,4.94,4.94,9.54,5.08l-1.85,3.62c-4.14-.2-8.21-1.88-10.06-4.8-1.67,2.89-5.71,4.42-9.85,4.73-.6-1.18-1.22-2.36-1.78-3.55,4.32-.17,8.67-1.84,9.3-5.08h-7.91v-3.59Zm-20.33-18h9v3.27h-9Zm19.91,10.79v6h-4.56V282.84h4.56v8.08h4.25v3.76Z"/><path class="cls-3" d="M860.09,308.5l-2.61-3.62c6.79-3.17,11.14-9.12,11.77-15.08h-9.86v-3.75h14.73C873.84,295.1,870.15,303,860.09,308.5Zm18.77,5.37v-31h4.63v31Z"/><path class="cls-3" d="M804.69,91.89c-.4-3-1.75-13.93-.53-14.47,1.43-.64,5.23-2.7,7.13,0s2.58,14.82,2.6,15.23h0a22.48,22.48,0,0,0-1,7.08h0a14.47,14.47,0,0,0-8.47-6.65Z"/><path class="cls-3" d="M793.87,97.19a7.5,7.5,0,0,1,4.43-1.45,8.49,8.49,0,1,1-7.92,8.47"/><path class="cls-3" d="M803.68,107.3s1.31-7.71-5.38-9-26.44-6.49-27.55-6.49-4.91,1.43-3,4c1.6,2.13,23.15,8.19,30,10.62"/><path class="cls-4" d="M754.69,77.39c-1.9-4.44-7-5.07-7-5.07s-72.21,10.77-89.94,28.5a10.75,10.75,0,0,0-2.47,4.5c23-15.58,85.47-24.9,85.47-24.9s5.07.63,7,5.06c0,0,57.92,119.29,60.78,141.06a53.87,53.87,0,0,0,6.32-4.74C823.33,218.74,754.69,77.39,754.69,77.39Z"/><path class="cls-5" d="M807.93,229.89c-19.31,17.17-76,32.3-100.07,35.47s-74.74-138.71-57-156.44,89.94-28.5,89.94-28.5,5.07.63,7,5.06c0,0,68.63,141.36,60.17,144.41,0,0-45.75,17.38-90.74,25.54a16.79,16.79,0,0,1-12.72-2.66c-40.09-28.37-49.81-142-49.81-142"/><ellipse class="cls-6" cx="786.77" cy="97.71" rx="2.74" ry="13.2" transform="translate(423.95 802.64) rotate(-69.85)"/><path class="cls-7" d="M669.19,101s10.77,54.35,16.47,55.68,84.87-19,84.87-24.65-19.64-47.42-22.17-49.36S669.19,101,669.19,101Z"/><path class="cls-8" d="M747.7,94.21l-70.22,21.45a1.87,1.87,0,0,1-2.37-1.4l-.37-1.77a1.91,1.91,0,0,1,1.31-2.23l70.3-21.48a1.44,1.44,0,0,1,1.79,1l.71,2.31A1.74,1.74,0,0,1,747.7,94.21Z"/><text class="cls-9" transform="translate(674.48 109.32) rotate(-16.76)">Music</text><text class="cls-9" transform="translate(679.18 125.89) rotate(-16.76)">Videos</text><text class="cls-9" transform="translate(680.81 131.08) rotate(-16.76)"><tspan class="cls-10">E</tspan><tspan x="2.95" y="0">xt</tspan><tspan class="cls-11" x="7.72" y="0">r</tspan><tspan x="9.62" y="0">as</tspan></text><text class="cls-9" transform="translate(677.83 120.95) rotate(-16.76)">Photos</text><text class="cls-9" transform="translate(682.38 136.75) rotate(-16.76)">Now Playing</text><text class="cls-12" transform="translate(676.56 114.94) rotate(-16.76)">Playlists</text><path class="cls-13" d="M747,222.26c-19.1,0-34.64-14.32-34.64-31.92s15.54-31.92,34.64-31.92,34.64,14.32,34.64,31.92S766.05,222.26,747,222.26Z"/><path d="M747,158.92c18.82,0,34.14,14.1,34.14,31.42S765.77,221.76,747,221.76s-34.14-14.09-34.14-31.42,15.31-31.42,34.14-31.42m0-1c-19.41,0-35.14,14.52-35.14,32.42s15.73,32.42,35.14,32.42,35.14-14.51,35.14-32.42S766.36,157.92,747,157.92Z"/><ellipse class="cls-4" cx="746.95" cy="189.32" rx="12.69" ry="11.67"/><path d="M747,178.16c6.72,0,12.18,5,12.18,11.16s-5.46,11.17-12.18,11.17-12.19-5-12.19-11.17,5.47-11.16,12.19-11.16m0-1c-7.28,0-13.19,5.45-13.19,12.16s5.91,12.17,13.19,12.17,13.18-5.45,13.18-12.17-5.9-12.16-13.18-12.16Z"/><polygon class="cls-3" points="752.38 213.55 750.75 209.85 754.76 210.3 752.38 213.55"/><polygon class="cls-3" points="768.14 183.42 766.52 179.72 770.53 180.16 768.14 183.42"/><polygon class="cls-3" points="771.31 182.15 769.68 178.46 773.7 178.9 771.31 182.15"/><rect class="cls-3" x="755.45" y="207.79" width="0.91" height="4.2" transform="translate(-20.61 321.53) rotate(-23.7)"/><rect class="cls-3" x="756.72" y="207.23" width="0.91" height="4.2" transform="translate(-20.28 321.99) rotate(-23.7)"/><polygon class="cls-3" points="725.41 195.52 727.04 199.22 723.02 198.77 725.41 195.52"/><polygon class="cls-3" points="722.25 196.79 723.87 200.48 719.86 200.04 722.25 196.79"/><text class="cls-14" transform="matrix(0.94, -0.34, 0.34, 0.94, 733.98, 172.92)">menu</text><path class="cls-15" d="M832.61,101.15c1.56,9.34-1.47,17.64-6.79,18.53-3.79.65-7.72-2.67-10.24-8h-.12a22.62,22.62,0,0,0,.13-2.34,18.65,18.65,0,0,0-2.66-9.74h0a23.07,23.07,0,0,1,1-7.08c1.2-3.65,3.35-6.16,6.15-6.63C825.45,85,831,91.81,832.61,101.15Z"/><path class="cls-15" d="M815.59,109.32a22.62,22.62,0,0,1-.13,2.34c-1,8.18-7,14.48-14.28,14.48a12.73,12.73,0,0,1-2.91-.34c-6.57-1.57-11.51-8.35-11.51-16.48a19.33,19.33,0,0,1,1-6.06c.86.25,1.7.52,2.51.78l-.07.2a7.93,7.93,0,1,0,7.91-8.46,7.44,7.44,0,0,0-4.42,1.44l0,.1c-.67-.14-1.37-.32-2.11-.49a13.26,13.26,0,0,1,9.66-4.34,11.92,11.92,0,0,1,3.28.45,14.46,14.46,0,0,1,8.47,6.64A18.65,18.65,0,0,1,815.59,109.32Z"/><path class="cls-16" d="M798.27,125.8c-6.57-1.57-11.51-8.35-11.51-16.48a19.33,19.33,0,0,1,1-6.06h0"/><path class="cls-16" d="M791.52,96.83a13.26,13.26,0,0,1,9.66-4.34,11.92,11.92,0,0,1,3.28.45,14.46,14.46,0,0,1,8.47,6.64,18.65,18.65,0,0,1,2.66,9.74,22.62,22.62,0,0,1-.13,2.34c-1,8.18-7,14.48-14.28,14.48a12.73,12.73,0,0,1-2.91-.34"/><path class="cls-16" d="M812.94,99.57a23.07,23.07,0,0,1,1-7.08c1.2-3.65,3.35-6.16,6.15-6.63,5.32-.91,10.9,6,12.48,15.29s-1.47,17.64-6.79,18.53c-3.79.65-7.72-2.67-10.24-8"/><path class="cls-16" d="M793.66,97.22a7.44,7.44,0,0,1,4.42-1.44,8.48,8.48,0,1,1-7.91,8.46"/><path class="cls-16" d="M803.47,107.32s1.3-7.69-5.39-9c-1.14-.23-2.69-.57-4.45-1-.67-.14-1.37-.32-2.11-.49-8.47-2-20.15-5-21-5-1.11,0-4.91,1.42-3,4,1.1,1.45,11.55,4.75,20.21,7.48.86.25,1.7.52,2.51.78,3,.93,5.54,1.75,7.22,2.36"/><path class="cls-16" d="M804.89,92.49s0-.28-.1-.77c-.41-3-1.75-13.94-.53-14.48,1.41-.63,5.22-2.69,7.12,0S814,92.49,814,92.49"/><path class="cls-16" d="M806,75.89s-1.27-32.06-31-28.73-29.11,25.63-29.11,25.63"/><path class="cls-16" d="M767,93.55s-5.19-1.17-6.29-3.48"/><path class="cls-16" d="M797.22,125.5c8.48,24,8.63,40.31,11.65,45"/><path class="cls-16" d="M769.84,48s-10.55,32.28,41.07,15.81-10.77-27.86-16.16-25.17c0,0-49.22-2.93-18.83,44.06q4,6.22,7.34,12.15"/><path class="cls-17" d="M813.28,190.34s.16,4.4-1.43,3.06-2.06-13.57-2.06-13.57l-.08-.35,1.5-.35Z"/><path class="cls-18" d="M811.06,170.51l1.12,8.39-1,.23-1.5.35-1.49.35-1.43-8.53S807.9,168.13,811.06,170.51Z"/><path class="cls-16" d="M809.71,179.48l-1.49.35-1.43-8.53s1.11-3.17,4.27-.79l1.12,8.39-1,.23Z"/><path class="cls-16" d="M809.79,179.83s.49,12.22,2.06,13.57,1.43-3.06,1.43-3.06l-2.07-11.21"/><ellipse class="cls-19" cx="828.35" cy="101.19" rx="2.94" ry="10.69" transform="translate(-0.03 202.11) rotate(-13.91)"/><circle class="cls-20" cx="840.89" cy="157.92" r="23.83"/><circle class="cls-20" cx="834.96" cy="150.42" r="3.69"/><circle class="cls-20" cx="849.99" cy="156.19" r="3.69"/><path class="cls-20" d="M854.4,166.33a16.2,16.2,0,0,1-29.48-10"/><path class="cls-16" d="M814.86,222c-19.31,17.17-76,32.3-100.07,35.47s-74.74-138.71-57-156.44,89.94-28.51,89.94-28.51,5.06.64,7,5.07c0,0,68.64,141.35,60.17,144.41,0,0-45.75,17.37-90.73,25.54a16.86,16.86,0,0,1-12.72-2.66c-40.1-28.37-49.82-141.95-49.82-141.95"/><g class="cls-21"><g class="cls-22"><g class="cls-23"><ellipse class="cls-20" cx="1458.82" cy="90.9" rx="20.99" ry="21.2"/></g></g></g></svg>