<svg id="레이어_1" data-name="레이어 1" xmlns="http://www.w3.org/2000/svg" viewBox="0 0 768 280"><defs><style>.cls-1{fill:#fcfcfc;}.cls-2{fill:#ddd;}.cls-3,.cls-7{fill:#fff;}.cls-4{fill:#efefef;}.cls-5{fill:none;}.cls-5,.cls-7{stroke:#000;}.cls-5,.cls-7,.cls-9{stroke-miterlimit:10;}.cls-6{fill:#f7f7f7;}.cls-8{fill:#070705;}.cls-9{stroke:#fff;}.cls-10{fill:#e5e5e3;}.cls-11{fill:#fffde3;opacity:0.27;}</style></defs><rect class="cls-1" x="-20.31" y="-9.41" width="803.43" height="295.97"/><path class="cls-2" d="M508.22,52.53c-3.94,0-7.15-2.94-7.15-6.56,0-3.46,3-6,7.15-6s7.15,2.51,7.15,6C515.37,49.59,512.17,52.53,508.22,52.53Z"/><path d="M508.22,40.49c3.86,0,6.65,2.31,6.65,5.48,0,3.34-3,6.06-6.65,6.06s-6.65-2.72-6.65-6.06c0-3.17,2.8-5.48,6.65-5.48m0-1c-4.22,0-7.65,2.58-7.65,6.48S504,53,508.22,53s7.65-3.16,7.65-7.06-3.42-6.48-7.65-6.48Z"/><path class="cls-2" d="M496,52.53c-3.38,0-6.52-2.55-6.61-5.36a4.88,4.88,0,0,1,1.37-3.65,5.77,5.77,0,0,1,4.17-1.67,6.59,6.59,0,0,1,1,.07c2.74.43,5.93,2.07,5.93,5.31A5.61,5.61,0,0,1,496,52.53Z"/><path d="M494.92,42.35h0a5.79,5.79,0,0,1,.92.07c2.53.39,5.5,1.89,5.5,4.81A5.1,5.1,0,0,1,496,52c-3.12,0-6-2.32-6.11-4.87a4.44,4.44,0,0,1,1.23-3.3,5.3,5.3,0,0,1,3.81-1.51m0-1c-3.2,0-6.14,2.21-6,5.84.1,3.2,3.6,5.84,7.11,5.84a6.1,6.1,0,0,0,6.35-5.8c0-3.2-2.89-5.27-6.35-5.8a6.51,6.51,0,0,0-1.07-.08Z"/><path class="cls-2" d="M486.06,63.2c-3.76-.07-6.38-3.64-6.46-6.93a7.31,7.31,0,0,1,1.79-5.38,5.34,5.34,0,0,1,3.92-1.56l.7,0a6.93,6.93,0,0,1,6.5,6.92c0,3.81-2.84,6.92-6.34,6.92Z"/><path d="M485.32,49.83h0l.64,0A6.45,6.45,0,0,1,492,56.28c0,3.54-2.62,6.42-5.84,6.42h-.1c-3.47-.07-5.89-3.39-6-6.45a6.8,6.8,0,0,1,1.65-5,4.81,4.81,0,0,1,3.57-1.41m0-1c-4,0-6.33,3.17-6.22,7.45.09,3.67,3,7.35,7,7.42h.11c3.79,0,6.84-3.37,6.84-7.42a7.45,7.45,0,0,0-6.95-7.42l-.74,0Z"/><circle class="cls-2" cx="483.84" cy="70.31" r="6.46"/><path d="M483.84,64.35a6,6,0,1,1-6,6,6,6,0,0,1,6-6m0-1a7,7,0,1,0,7,7,7,7,0,0,0-7-7Z"/><path class="cls-3" d="M494,87.47c-3.69,0-7.45-3.5-7.45-6.94,0-3.69,3.66-6,7.05-6A6.47,6.47,0,0,1,500.07,81,6.13,6.13,0,0,1,494,87.47Z"/><path d="M493.61,75.05a6,6,0,0,1,6,6A5.64,5.64,0,0,1,494,87c-3.44,0-6.95-3.25-6.95-6.44,0-3.38,3.4-5.48,6.55-5.48m0-1c-3.84,0-7.55,2.63-7.55,6.48S490.17,88,494,88s6.56-3.12,6.56-7a7,7,0,0,0-7-7Z"/><path class="cls-3" d="M507.71,90.79a7.26,7.26,0,0,1-7-6.76,7.09,7.09,0,0,1,7-7.32,7.24,7.24,0,0,1,7,7.35,6.65,6.65,0,0,1-2,4.68,6.78,6.78,0,0,1-4.81,2.05Z"/><path d="M507.7,77.21a6.75,6.75,0,0,1,6.5,6.85,6.09,6.09,0,0,1-1.84,4.32,6.26,6.26,0,0,1-4.45,1.91h-.18A6.75,6.75,0,0,1,501.19,84a6.59,6.59,0,0,1,6.51-6.81m0-1a7.58,7.58,0,0,0-7.51,7.84,7.75,7.75,0,0,0,7.5,7.24h.22a7.4,7.4,0,0,0,7.29-7.24,7.7,7.7,0,0,0-7.5-7.84Z"/><path class="cls-3" d="M519.82,85.49a7,7,0,0,1,0-13.95,7,7,0,1,1,0,13.95Z"/><path d="M519.82,72a6.48,6.48,0,1,1,0,12.95,6.48,6.48,0,0,1,0-12.95m0-1a7.48,7.48,0,0,0,0,14.95,7.48,7.48,0,1,0,0-14.95Z"/><path class="cls-3" d="M525.08,73a7,7,0,1,1,7.33-7,6.46,6.46,0,0,1-1.84,4.74A7.63,7.63,0,0,1,525.09,73Z"/><path d="M525.08,59.51A6.73,6.73,0,0,1,531.91,66a5.87,5.87,0,0,1-1.7,4.37,7.15,7.15,0,0,1-5.13,2.08,6.49,6.49,0,1,1,0-13m0-1a7.49,7.49,0,1,0,0,15h0c4.33,0,7.94-3.18,7.82-7.48a7.74,7.74,0,0,0-7.83-7.48Z"/><path class="cls-3" d="M519.82,60.42a7,7,0,1,1,0-14c4.14,0,7.91,3.49,7.91,7.32S523.64,60.42,519.82,60.42Z"/><path d="M519.82,47c3.81,0,7.41,3.31,7.41,6.82,0,3-3,6.13-7.41,6.13a6.48,6.48,0,1,1,0-13m0-1a7.48,7.48,0,1,0,0,15c4.33,0,8.41-3,8.41-7.13S524.15,46,519.82,46Z"/><path class="cls-3" d="M504.69,84.38c-11.22,0-20.35-8.79-20.35-19.59s9.13-19.58,20.35-19.58S525,54,525,64.79,515.91,84.38,504.69,84.38Z"/><path d="M504.69,45.71c10.95,0,19.85,8.56,19.85,19.08s-8.9,19.09-19.85,19.09-19.85-8.56-19.85-19.09,8.9-19.08,19.85-19.08m0-1c-11.52,0-20.85,9-20.85,20.08s9.33,20.09,20.85,20.09,20.85-9,20.85-20.09-9.33-20.08-20.85-20.08Z"/><ellipse class="cls-4" cx="503.71" cy="62.16" rx="18.21" ry="16.35"/><path class="cls-5" d="M497,60.51s6.13-1.11,7.23,4.28"/><path class="cls-5" d="M503.35,75.61s5.51-1.85,4.81,3.62"/><path class="cls-5" d="M515.87,59.57s4.9.19,5.15,4.3"/><path class="cls-5" d="M497.12,49.5s5.38-1.6,5.22,3.2"/><path class="cls-5" d="M487.37,70.59a3.35,3.35,0,0,1,4,3.06"/><path class="cls-6" d="M545.21,197.9l-6.28,10.36a103.51,103.51,0,0,0-24.74,2.4c-56.65,12.14-75.05-1.24-75.05-1.24s-30.31-14.63-58.09-4.66-27.42,7.77-77.21.92c-18.51-2.54-31.74.51-41,5.34l-28.59-43.29,29.59,9.64,7.57-19.91,15.16,19.29,4.68-11.51s18.4,11.56,19.49,13.4,15.15-4.38,15.15-4.38l3.61,6.22,5.41-13.06,7.94,20.22,14.07-13.07,12.63,11.54,4-10.6.87-1L395.12,188l18-28,11.55,20.84L445.27,174l5.78,7.15L466.92,160l5.77,10.57,26-16.17,11.54,28.31,19.85-6.85,1.44,19.6Z"/><path class="cls-5" d="M263.82,211.11l-28.59-50.2,29.59,11.18L272.39,149l15.16,22.37L292.24,158s18.4,13.41,19.48,15.55,15.15-5.08,15.15-5.08l3.61,7.21,5.41-15.15L343.83,184l14.07-15.15,12.63,13.38,4-12.3"/><polyline class="cls-5" points="374.5 168.12 396.15 184.36 414.19 151.89 425.73 176.06 446.3 168.12 452.07 176.42 467.94 151.89 473.72 164.16 499.69 145.4 511.24 178.23 531.08 170.29 532.52 193.02 546.24 195.91 539.96 207.91"/><path class="cls-5" d="M243.53,236s11.55-39,61.34-31,49.42,10.49,77.2-1.07,58.09,5.39,58.09,5.39,18.4,15.52,75.05,1.45c19.33-4.8,35.09-3,47.46,1.54"/><path class="cls-4" d="M288.65,112.12c1.07,3,3,6.62,6,6.16,3.45-.52,3.5-4.14,2.5-8.46"/><path class="cls-7" d="M293.29,118.35s11.8,53.46-1.26,86.86l6.44-.26c6.85-59.87-3.31-87.09-3.31-87.09"/><path class="cls-5" d="M288,112.15c1.08,2.95,3,6.62,6,6.16,3.44-.53,3.49-4.15,2.5-8.47"/><path class="cls-5" d="M299.82,81.47a23.35,23.35,0,0,1,3.34,8.45c2,10.59-3.24,20.47-11.69,22.06s-16.93-5.7-18.93-16.29a23.91,23.91,0,0,1-.4-5.42"/><path class="cls-5" d="M300.81,83.15s-8.95-20.3-13.15-18-2,18.67-2.2,17.6-6.22-9.42-9.18-10.37-4.18,15.3-4.14,17.87"/><path class="cls-5" d="M276.24,86.22s10.62-3.15,12.18,8.67a3.85,3.85,0,0,1-3.1,3.25c-3,.81,3.9,1.44,3.9,1.44"/><circle cx="293.27" cy="89.93" r="1.83"/><circle class="cls-8" cx="282.75" cy="93.29" r="1.83"/><path class="cls-5" d="M290.72,83.57c-.85-.72,2.33-1.7,4.11-.17"/><path class="cls-5" d="M286.06,104.1s9.54,0,9.42-4.78"/><path class="cls-7" d="M300.6,154.28c1-.45,5.36-13.73,19.53-12.68,0,0,1,14.86-17.73,18.19l-1.62.06"/><path class="cls-7" d="M296.52,138.54a29.46,29.46,0,0,0-13.45-5.68c-7.72-1,6,12.73,13.71,8"/><path class="cls-5" d="M285.14,72.5s-.54-5-2.44-6.51"/><path class="cls-5" d="M285.14,82.08s-1.79-9.59-2.89-10.31"/><path class="cls-5" d="M278.84,74.19c-.36-.33-1-5.16-1.71-5.36"/><path class="cls-3" d="M282.71,65.59a.24.24,0,0,1-.23-.22.27.27,0,0,1,.06-.16.3.3,0,0,1,.16-.07h0a.23.23,0,0,1,.23.22.27.27,0,0,1-.06.16.3.3,0,0,1-.16.07Z"/><path d="M282.71,64.64h0a.74.74,0,0,0-.7.76.73.73,0,0,0,.72.69h0a.73.73,0,0,0,0-1.45Z"/><path class="cls-3" d="M277.1,68.33a.22.22,0,0,1-.22-.21.27.27,0,0,1,.06-.16.18.18,0,0,1,.15-.07h0a.23.23,0,0,1,.23.21.24.24,0,0,1-.06.16.22.22,0,0,1-.16.07Z"/><path d="M277.1,67.39h0a.72.72,0,0,0,0,1.44h0a.72.72,0,0,0,0-1.44Z"/><path class="cls-3" d="M281.86,72a.22.22,0,0,1-.22-.21.22.22,0,0,1,.21-.24h0a.22.22,0,0,1,.23.22.22.22,0,0,1-.21.23Z"/><path d="M281.86,71.06h0a.73.73,0,0,0,0,1.45h0a.73.73,0,0,0,0-1.45Z"/><path class="cls-3" d="M487.63,216.63c-1.57-1.18-1.61-8.58-1.25-13.07l.06-.82-.75.32a11.46,11.46,0,0,1-4.35.82c-7.82,0-16.86-6.95-20.08-13.18-1.36-2.65-1.58-5-.63-6.61,18.95,6.22,23.7,11.84,23.74,11.9l.31.38.39-.31c.16-.12,15.82-12.42,30.93-12.42a23.66,23.66,0,0,1,8.27,1.41A42.13,42.13,0,0,1,518,194c-3.92,4.26-10.46,9.35-19.35,9.35a27.14,27.14,0,0,1-8.48-1.43,1,1,0,0,0-.33,0,.88.88,0,0,0-.75.41c-1.12,1.62.74,9.88,2.3,14.35Z"/><path d="M516,183.14v1a23.44,23.44,0,0,1,7.56,1.19c-2,3.8-10.39,17.52-24.88,17.52a26.69,26.69,0,0,1-8.32-1.4,1.4,1.4,0,0,0-.49-.08,1.43,1.43,0,0,0-1.17.63c-1.32,1.91.67,10,2,14.13h-2.9c-1-1.06-1.4-6.69-.94-12.53L487,202l-1.51.62a10.67,10.67,0,0,1-4.16.79c-7.64,0-16.48-6.8-19.63-12.91-.71-1.38-1.68-3.83-.83-5.77,18.39,6.09,23.06,11.55,23.1,11.6l.63.77.77-.62c.16-.12,15.68-12.31,30.62-12.31v-1m0,0c-15.46,0-31.24,12.53-31.24,12.53s-4.64-5.77-24.34-12.17c-4.52,6.34,9.34,20.88,20.92,20.88a11.9,11.9,0,0,0,4.54-.86s-1,12.17,1.6,13.61h4.65c-1.87-5-3.94-14.76-2.26-14.76l.18,0a27.61,27.61,0,0,0,8.63,1.45c17.59,0,26.28-19.07,26.28-19.07a23.9,23.9,0,0,0-9-1.64Z"/><path class="cls-3" d="M488.46,188.65a22.91,22.91,0,0,1-22.88-22.88c0-10.14,9.85-14.91,19.38-19.53,2.27-1.09,4.61-2.23,6.79-3.42A6.64,6.64,0,0,1,495,142c6.27,0,13,9.84,16.4,23.92a15.52,15.52,0,0,1-3.28,13.45A25.77,25.77,0,0,1,488.46,188.65Z"/><path d="M495,142.46h0c6,0,12.58,9.68,15.91,23.54a15,15,0,0,1-3.18,13,25.26,25.26,0,0,1-19.23,9.13,22.41,22.41,0,0,1-22.38-22.38c0-9.83,9.28-14.32,19.1-19.08,2.27-1.1,4.62-2.24,6.81-3.43a6.16,6.16,0,0,1,3-.8m0-1a7.17,7.17,0,0,0-3.45.92c-11.33,6.2-26.43,10.47-26.43,23.39a23.38,23.38,0,0,0,23.38,23.38c12.92,0,26.41-10.83,23.39-23.38-3.36-14-10.07-24.31-16.89-24.31Z"/><path class="cls-7" d="M488.68,156.49s2.42,10.68,0,13.45-1,4.7,0,4.06"/><path class="cls-9" d="M482.25,162.41a2.25,2.25,0,1,1-3.95,0"/><path class="cls-9" d="M500.74,162a2.18,2.18,0,0,1,.27,1.07,2.24,2.24,0,0,1-4.48,0,2.29,2.29,0,0,1,.27-1.07"/><path class="cls-7" d="M484.76,179.92s12.79-1.71,13.55-4.16-1.91,10.46-9.07,9"/><line class="cls-7" x1="476.48" y1="162.41" x2="484.07" y2="162.41"/><line class="cls-7" x1="494.98" y1="161.99" x2="502.56" y2="161.99"/><line class="cls-7" x1="492.25" y1="136.57" x2="491.6" y2="126.64"/><line class="cls-7" x1="512.27" y1="149.22" x2="521.28" y2="143.94"/><path class="cls-7" d="M490.93,197.36s18.26-8.31,23.92-8.21"/><polyline class="cls-10" points="359.58 54.62 361.76 67.92 331.52 69.67 330.15 54.9"/><polygon class="cls-6" points="334.54 110.45 368.92 111.38 398.89 106.48 428.54 95.08 449.53 129.07 440.82 174.16 423.67 189.76 399.16 200.34 368.05 196.89 352.46 189.92 330.2 152.19 334.54 110.45"/><path class="cls-11" d="M364.28,109.36s3.44,21,17.31,19,24.2-5.84,20.29-24.26-20.14-12.06-20.14-12.06S365.17,91.78,364.28,109.36Z"/><polygon class="cls-5" points="332.49 104.39 369.02 105.38 400.86 100.17 432.37 88.06 454.67 124.17 445.41 172.08 427.19 188.66 401.15 199.9 368.09 196.23 351.53 188.83 327.89 148.75 332.49 104.39"/><path class="cls-5" d="M403.52,195.32c.91-.84,7.5-9.6,7.5-9.6l25.05-11.07"/><polyline class="cls-5" points="397.74 196.27 388.71 190.07 357.87 189.19"/><line class="cls-5" x1="399.5" y1="102.5" x2="389.85" y2="186.4"/><line class="cls-5" x1="371.3" y1="107.11" x2="409.89" y2="183.12"/><line class="cls-5" x1="439.2" y1="110.63" x2="410.97" y2="144.92"/><line class="cls-5" x1="336.99" y1="112.72" x2="331.68" y2="146.38"/><line class="cls-5" x1="354.86" y1="185.03" x2="381.59" y2="174.26"/><line class="cls-5" x1="392.35" y1="172.5" x2="400.84" y2="171.11"/><line class="cls-5" x1="392.79" y1="189.4" x2="407.85" y2="186.94"/><line class="cls-5" x1="408.99" y1="169.78" x2="439.51" y2="167.98"/><line class="cls-5" x1="336.34" y1="136.43" x2="358.12" y2="149.5"/><line class="cls-5" x1="369.02" y1="105.38" x2="377.41" y2="90.42"/><line class="cls-5" x1="400.86" y1="100.17" x2="388.73" y2="88.57"/><line class="cls-5" x1="432.37" y1="88.06" x2="398.44" y2="85.35"/><line class="cls-5" x1="332.49" y1="104.39" x2="362.88" y2="91.17"/><path class="cls-5" d="M396.66,74.48l1.78,10.87S387.86,91,362.88,91.17L361.11,80.3"/><polyline class="cls-5" points="335.44 70.89 353.16 79.33 380.8 79.17 405.03 71.6 420.74 58.91 418.19 43.29 396.67 36.11 375.04 37.21 352.11 41.65 332.7 54.13 335.53 71.45"/><polyline class="cls-5" points="332.7 54.13 362.29 51.97 375.04 37.21 391.29 48.73 418.19 43.29"/><line class="cls-5" x1="391.29" y1="48.73" x2="362.29" y2="51.97"/><polyline class="cls-5" points="362.53 53.44 364.31 70 379.84 79.32 393.88 64.59 392.66 50.02"/><line class="cls-5" x1="395.01" y1="64.4" x2="418.49" y2="58.64"/><line class="cls-5" x1="362.06" y1="69.79" x2="337.18" y2="70.49"/><path class="cls-5" d="M390.64,51.86a63.44,63.44,0,0,1-26.36,3"/><path class="cls-5" d="M391.62,65s-12.45,4.94-25,4.09"/><path class="cls-5" d="M349.67,76.47c.32-.17,14.08-3.35,14.08-3.35"/><line class="cls-5" x1="406.96" y1="67.75" x2="393.89" y2="68.19"/><polyline class="cls-1" points="402.39 102.58 430.75 90.45 440.02 105.5 409.03 143.18"/><path class="cls-6" d="M364.61,57s16.39.66,26.73-4.37l1.26,11.26s-18.47,5.78-26.16,4.28"/><polyline class="cls-4" points="362.9 191.5 368.01 194.33 396.53 198.09 387.38 191.16"/><path d="M289.9,233.5v-3.27h16.81v3.27Zm8.48,10.43c-4.14,0-7-2.24-7-5s2.82-5,7-5,7,2.24,7,5S302.46,243.93,298.38,243.93Zm4.44,10.1c-6.15,0-10-1.71-10-4.82s3.83-4.73,10-4.73,9.91,1.72,9.91,4.73S309,254,302.82,254Zm-8.74-28.21h8.64v3.24h-8.64Zm4.3,15.06c1.56,0,2.72-.87,2.72-2s-1.16-1.95-2.72-1.95-2.69.91-2.69,1.95S296.8,240.88,298.38,240.88Zm-1.16,8.36c0,1,2,1.59,5.6,1.59s5.64-.65,5.64-1.59-2-1.52-5.64-1.52S297.22,248.33,297.22,249.24Zm18.88-9h-3.43v4.21h-4.28V225.24h4.28v5.54h3.43v3.46h-3.43v2.53h3.43Z"/><path d="M328.83,254.13v-10H318v-3.4h26.07v3.4h-11v10Zm12.48-15.58c-4.41-.65-8.75-3.17-10.24-6.35-1.55,3.18-5.83,5.77-10.2,6.38l-1.69-3.43c4.93-.52,9.65-3.5,9.65-8v-1.32h4.48v1.32c0,4.47,4.69,7.32,9.65,7.87Z"/><path d="M361.2,243v4.21h10.91v3.37H346v-3.37H357V243h-7.64v-9.85H364.6v-2.79H349.28v-3.43h19.59v9.65H353.59v3h16V243Z"/><path d="M382.58,250.57V247.2h9.3v-6.77h4.27v6.77h12.51v3.37Zm23.29-19.76a70.24,70.24,0,0,1-1.43,13.41c-1.32-.16-2.72-.32-4-.55a48.37,48.37,0,0,0,.87-5.51c-5.34.33-10.72.62-16,.91-.16-1.17-.36-2.4-.49-3.6l16.81-.48c.07-.91.07-1.78.07-2.56v-1H385.92v-3.46H405.8C405.84,228.87,405.87,229.94,405.87,230.81Z"/><path d="M418.34,243.77a46.81,46.81,0,0,0,9.75-.81c.13,1.16.3,2.3.46,3.49a60.44,60.44,0,0,1-11.63.94c-1.59,0-3.11-.06-4.66-.06v-19.5h13.15v3.37h-8.85v12.53C417.15,243.77,417.73,243.77,418.34,243.77ZM430,254.1V225.24h4.28V254.1Z"/><path d="M447.73,230.58H463v3.24h-5.25c.65,2.59,3.5,4.47,6,5-.61,1.1-1.29,2.17-1.94,3.27a10.4,10.4,0,0,1-6.35-5c-.91,2.24-3.79,4.51-6.61,5.35-.68-1.07-1.39-2.17-2-3.27,3.08-.85,5.6-2.69,6.19-5.35h-5.28ZM470.17,243v3.33h-7.61c.52,3,4.6,4.6,8.88,4.73l-1.72,3.37c-3.85-.19-7.64-1.75-9.36-4.47-1.55,2.69-5.31,4.12-9.17,4.41-.55-1.1-1.13-2.21-1.65-3.31,4-.16,8.07-1.71,8.65-4.73h-7.35V243Zm-18.91-16.78h8.39v3h-8.39Zm18.53,10v5.57h-4.25V225.24h4.25v7.51h3.95v3.5Z"/><path d="M477.4,249.11,475,245.74c6.32-3,10.37-8.48,10.95-14h-9.16v-3.5h13.7C490.2,236.64,486.76,244,477.4,249.11Zm17.46,5V225.24h4.31V254.1Z"/></svg>