<svg id="레이어_1" data-name="레이어 1" xmlns="http://www.w3.org/2000/svg" viewBox="0 0 768 280"><defs><style>.cls-1{fill:#ff747c;}.cls-11,.cls-13,.cls-19,.cls-2,.cls-6{fill:#fff;}.cls-3{fill:#ffe9eb;}.cls-4{fill:#ffb3ba;}.cls-5{fill:#ffd9de;}.cls-15,.cls-19,.cls-6{stroke:#000;}.cls-15,.cls-6{stroke-miterlimit:10;}.cls-7{fill:#ff394c;}.cls-11,.cls-8{font-size:4.52px;}.cls-11,.cls-13,.cls-8{font-family:AppleSDGothicNeo-ExtraBold-KSCpc-EUC-H, Apple SD Gothic Neo;}.cls-9{letter-spacing:-0.01em;}.cls-10{letter-spacing:-0.01em;}.cls-12{fill:#ef3345;}.cls-13{font-size:3.81px;}.cls-14{fill:#e20e2d;}.cls-15{fill:none;}.cls-16{fill:#ff7b7b;}.cls-17{fill:#ffe6e6;}.cls-18{fill:#ff718c;}.cls-19{stroke-linecap:round;stroke-linejoin:round;}</style></defs><rect class="cls-1" x="-373.42" y="-51.87" width="1487.42" height="385.38"/><path class="cls-2" d="M292.49,245.33v-3.08h23.84v3.08Zm11.91-14.49c5.83,0,9.42,2.17,9.42,5.13s-3.59,5.15-9.42,5.15S295,239,295,236,298.56,230.84,304.4,230.84Zm-8.89,25.54v-9.13h17.77v9.13Zm8.89-18.16c3.29,0,5.33-.89,5.33-2.22s-2.07-2.19-5.33-2.19-5.28.94-5.28,2.19S301.14,238.22,304.4,238.22Zm5,12h-10v3.14h10Z"/><path class="cls-2" d="M325.08,231.67c4,0,7,2.52,7,6.31s-3,6.4-7,6.4-6.9-2.63-6.9-6.4S321.17,231.67,325.08,231.67ZM338.88,247v9.74H335V250H321.43V247Zm-13.8-5.9a2.94,2.94,0,0,0,3.2-3.08,3,3,0,0,0-3.2-3.14A3,3,0,0,0,322,238,2.91,2.91,0,0,0,325.08,241.06Zm13.77-1.39v5.81h-3.91v-15.2h3.91v6.19h3.56v3.2Z"/><path class="cls-2" d="M343.75,253.33v-3.14h23.84v3.14Zm11.9-7c-5.92,0-9.8-3-9.8-7.17s3.88-7.17,9.8-7.17,9.84,3,9.84,7.17S361.61,246.31,355.65,246.31Zm0-11.26c-3.55,0-5.83,1.6-5.83,4.12s2.28,4.06,5.83,4.06,5.87-1.63,5.87-4.06S359.24,235.05,355.65,235.05Z"/><path class="cls-2" d="M383.24,246.48v3.86h10v3.08H369.37v-3.08h10v-3.86h-7v-9h14v-2.55h-14v-3.14h17.92v8.83h-14v2.75h14.66v3.11Z"/><path class="cls-2" d="M402.79,253.45v-3.08h8.51v-6.2h3.91v6.2h11.43v3.08Zm21.3-18.07a64.67,64.67,0,0,1-1.3,12.26c-1.21-.15-2.49-.3-3.67-.5a46,46,0,0,0,.8-5c-4.89.3-9.81.56-14.67.83-.14-1.07-.32-2.19-.44-3.29l15.37-.44c.06-.83.06-1.63.06-2.34v-1H405.85v-3.17H424C424.06,233.6,424.09,234.58,424.09,235.38Z"/><path class="cls-2" d="M435.5,247.23a42.27,42.27,0,0,0,8.92-.75c.12,1.07.27,2.11.41,3.2a55.14,55.14,0,0,1-10.63.86c-1.45,0-2.84-.06-4.27-.06V232.65h12v3.08h-8.09V247.2C434.41,247.23,434.94,247.23,435.5,247.23Zm10.64,9.45v-26.4h3.91v26.4Z"/><path class="cls-2" d="M462.38,235.17h14v3h-4.8c.59,2.37,3.2,4.09,5.48,4.56-.56,1-1.18,2-1.78,3a9.43,9.43,0,0,1-5.8-4.56c-.83,2-3.47,4.12-6,4.89-.62-1-1.27-2-1.86-3,2.81-.77,5.12-2.46,5.66-4.89h-4.83Zm20.53,11.34v3.06h-7c.48,2.72,4.21,4.2,8.12,4.32L482.49,257c-3.52-.18-7-1.6-8.56-4.09-1.42,2.46-4.86,3.77-8.38,4-.51-1-1-2-1.51-3,3.67-.15,7.37-1.57,7.9-4.32h-6.72v-3.06Zm-17.3-15.34h7.67V234h-7.67Zm16.94,9.18v5.1h-3.88V230.28h3.88v6.87h3.61v3.2Z"/><path class="cls-2" d="M489.52,252.11,487.29,249c5.78-2.69,9.48-7.76,10-12.82h-8.39V233h12.53C501.22,240.71,498.08,247.4,489.52,252.11Zm16,4.57v-26.4h3.94v26.4Z"/><path class="cls-2" d="M442.36,67.6c-.37-2.84-1.44-11.63-.43-12.09,1.22-.53,4.45-2.29,6.07,0s2.2,13,2.2,13a19.3,19.3,0,0,0-.88,6h0A12.36,12.36,0,0,0,442,68.84Z"/><path class="cls-2" d="M433.18,72.34A6.39,6.39,0,0,1,437,71.11a7.22,7.22,0,1,1-6.74,7.2"/><path class="cls-2" d="M441.53,80.94s1.11-6.56-4.58-7.68-22.5-5.52-23.44-5.52S409.33,69,411,71.11c1.36,1.81,19.69,7,25.48,9"/><path class="cls-3" d="M399.85,55.5c-1.61-3.78-5.93-4.32-5.93-4.32s-61.42,9.17-76.51,24.25a9.16,9.16,0,0,0-2.1,3.83C334.86,66,388,58.07,388,58.07s4.31.54,5.92,4.31c0,0,49.28,101.48,51.71,120a45.67,45.67,0,0,0,5.38-4C458.24,175.75,399.85,55.5,399.85,55.5Z"/><path class="cls-4" d="M445.14,185.24c-16.43,14.6-64.66,27.48-85.13,30.17s-63.58-118-48.5-133.09S388,58.07,388,58.07s4.31.54,5.92,4.31c0,0,58.39,120.26,51.19,122.86,0,0-38.92,14.78-77.19,21.72a14.26,14.26,0,0,1-10.82-2.26C323,180.57,314.75,83.94,314.75,83.94"/><ellipse class="cls-5" cx="427.14" cy="72.79" rx="2.33" ry="11.23" transform="translate(211.63 448.69) rotate(-69.85)"/><path class="cls-6" d="M327.11,75.58s9.16,46.24,14,47.37,72.2-16.12,72.2-21-16.7-40.34-18.86-42S327.11,75.58,327.11,75.58Z"/><path class="cls-7" d="M393.9,69.81,334.16,88.06a1.58,1.58,0,0,1-2-1.19l-.32-1.51a1.63,1.63,0,0,1,1.12-1.9l59.81-18.27a1.22,1.22,0,0,1,1.52.81l.6,2A1.48,1.48,0,0,1,393.9,69.81Z"/><text class="cls-8" transform="translate(331.61 82.66) rotate(-16.76)">Music</text><text class="cls-8" transform="translate(335.61 96.76) rotate(-16.76)">Videos</text><text class="cls-8" transform="translate(337 101.18) rotate(-16.76)"><tspan class="cls-9">E</tspan><tspan x="2.51" y="0">xt</tspan><tspan class="cls-10" x="6.57" y="0">r</tspan><tspan x="8.18" y="0">as</tspan></text><text class="cls-8" transform="translate(334.46 92.55) rotate(-16.76)">Photos</text><text class="cls-8" transform="translate(338.33 106) rotate(-16.76)">Now Playing</text><text class="cls-11" transform="translate(333.39 87.45) rotate(-16.76)">Playlists</text><path class="cls-12" d="M393.26,178.67c-16.21,0-29.39-12.15-29.39-27.08s13.18-27.08,29.39-27.08,29.4,12.15,29.4,27.08S409.47,178.67,393.26,178.67Z"/><path d="M393.26,125c15.93,0,28.9,11.92,28.9,26.58s-13,26.58-28.9,26.58-28.89-11.92-28.89-26.58,13-26.58,28.89-26.58m0-1c-16.51,0-29.89,12.35-29.89,27.58s13.38,27.58,29.89,27.58,29.9-12.35,29.9-27.58S409.77,124,393.26,124Z"/><path class="cls-3" d="M393.26,160.57c-5.91,0-10.71-4.42-10.71-9.85s4.8-9.85,10.71-9.85S404,145.29,404,150.72,399.17,160.57,393.26,160.57Z"/><path d="M393.26,141.37c5.64,0,10.22,4.2,10.22,9.35s-4.58,9.35-10.22,9.35-10.21-4.19-10.21-9.35,4.58-9.35,10.21-9.35m0-1c-6.19,0-11.21,4.64-11.21,10.35s5,10.35,11.21,10.35,11.22-4.63,11.22-10.35-5-10.35-11.22-10.35Z"/><polygon class="cls-2" points="397.88 171.33 396.5 168.19 399.91 168.57 397.88 171.33"/><polygon class="cls-2" points="411.29 145.7 409.91 142.56 413.32 142.93 411.29 145.7"/><polygon class="cls-2" points="413.99 144.62 412.61 141.48 416.02 141.85 413.99 144.62"/><rect class="cls-2" x="400.49" y="166.43" width="0.77" height="3.57" transform="translate(-33.81 175.32) rotate(-23.7)"/><rect class="cls-2" x="401.57" y="165.96" width="0.77" height="3.57" transform="translate(-33.52 175.71) rotate(-23.7)"/><polygon class="cls-2" points="374.94 156 376.32 159.14 372.91 158.76 374.94 156"/><polygon class="cls-2" points="372.25 157.07 373.63 160.22 370.22 159.84 372.25 157.07"/><text class="cls-13" transform="matrix(0.94, -0.34, 0.34, 0.94, 382.23, 136.76)">menu</text><path class="cls-14" d="M466.13,75.72c1.33,7.94-1.24,15-5.77,15.76-3.23.54-6.57-2.28-8.71-6.82h-.11c.06-.66.11-1.32.11-2a15.91,15.91,0,0,0-2.26-8.27l0,0a19.6,19.6,0,0,1,.88-6c1-3.1,2.85-5.24,5.23-5.64C460,61.94,464.8,67.76,466.13,75.72Z"/><path class="cls-14" d="M451.65,82.65c0,.68,0,1.34-.11,2-.84,7-6,12.32-12.14,12.32a10.12,10.12,0,0,1-2.47-.29c-5.59-1.34-9.79-7.11-9.79-14A16.34,16.34,0,0,1,428,77.5l2.12.67-.06.17a6.75,6.75,0,1,0,6.75-7.2A6.43,6.43,0,0,0,433,72.36l0,.09c-.58-.12-1.17-.26-1.8-.41a11.29,11.29,0,0,1,8.22-3.7,10.32,10.32,0,0,1,2.79.38,12.29,12.29,0,0,1,7.2,5.66A15.91,15.91,0,0,1,451.65,82.65Z"/><path class="cls-15" d="M436.93,96.68c-5.59-1.34-9.79-7.11-9.79-14A16.34,16.34,0,0,1,428,77.5h0"/><path class="cls-15" d="M431.18,72a11.29,11.29,0,0,1,8.22-3.7,10.32,10.32,0,0,1,2.79.38,12.29,12.29,0,0,1,7.2,5.66,15.91,15.91,0,0,1,2.26,8.27c0,.68,0,1.34-.11,2-.84,7-6,12.32-12.14,12.32a10.12,10.12,0,0,1-2.47-.29"/><path class="cls-15" d="M449.41,74.36a19.6,19.6,0,0,1,.88-6c1-3.1,2.85-5.24,5.23-5.64,4.52-.76,9.28,5.06,10.61,13s-1.24,15-5.77,15.76c-3.23.54-6.57-2.28-8.71-6.82"/><path class="cls-15" d="M433,72.36a6.43,6.43,0,0,1,3.77-1.22,7.22,7.22,0,1,1-6.75,7.2"/><path class="cls-15" d="M441.35,81s1.11-6.56-4.58-7.68c-1-.2-2.29-.48-3.79-.84-.58-.12-1.17-.26-1.8-.41-7.2-1.72-17.14-4.27-17.85-4.27-.95,0-4.18,1.21-2.57,3.37.94,1.23,9.83,4,17.2,6.36l2.12.67c2.53.79,4.73,1.48,6.16,2"/><path class="cls-15" d="M442.56,68.34s0-.24-.09-.65c-.35-2.58-1.49-11.85-.45-12.32,1.2-.54,4.44-2.29,6.06,0s2.21,13,2.21,13"/><path class="cls-15" d="M443.5,54.23S442.42,27,417.09,29.78s-24.76,21.8-24.76,21.8"/><path class="cls-15" d="M410.32,69.25s-4.41-1-5.35-3"/><path class="cls-15" d="M436,96.43c7.22,20.44,7.34,34.29,9.91,38.29"/><path class="cls-15" d="M412.73,30.47s-9,27.46,34.94,13.45-9.16-23.7-13.74-21.41c0,0-41.87-2.5-16,37.48,2.29,3.53,4.36,7,6.24,10.34"/><path class="cls-16" d="M449.69,151.58s.14,3.75-1.21,2.6-1.75-11.53-1.75-11.53l-.07-.29,1.27-.31Z"/><path class="cls-17" d="M447.8,134.72l.95,7.13-.82.2-1.27.31-1.27.29-1.22-7.26S445.11,132.69,447.8,134.72Z"/><path class="cls-15" d="M446.66,142.36l-1.27.29-1.22-7.26s.94-2.7,3.63-.67l.95,7.13-.82.2Z"/><path class="cls-15" d="M446.73,142.65s.41,10.39,1.75,11.53,1.21-2.6,1.21-2.6l-1.76-9.53"/><ellipse class="cls-18" cx="462.51" cy="75.74" rx="2.5" ry="9.1" transform="translate(-4.64 113.41) rotate(-13.91)"/><circle class="cls-19" cx="473.18" cy="124.01" r="20.27"/><circle class="cls-19" cx="468.14" cy="117.63" r="3.14"/><circle class="cls-19" cx="480.92" cy="122.53" r="3.14"/><path class="cls-19" d="M484.67,131.17a13.79,13.79,0,0,1-25.08-8.48"/><path class="cls-15" d="M451,178.5c-16.43,14.6-64.66,27.48-85.13,30.17s-63.59-118-48.5-133.09,76.51-24.25,76.51-24.25,4.32.54,5.93,4.31c0,0,58.39,120.26,51.19,122.86,0,0-38.92,14.78-77.19,21.72A14.26,14.26,0,0,1,363,198C328.92,173.82,320.64,77.2,320.64,77.2"/></svg>