<svg id="레이어_1" data-name="레이어 1" xmlns="http://www.w3.org/2000/svg" viewBox="0 0 390 200"><defs><style>.cls-1{fill:#ff747c;}.cls-12,.cls-14,.cls-2,.cls-20,.cls-6{fill:#fff;}.cls-3{fill:#ffe9eb;}.cls-4{fill:#ffb3ba;}.cls-5{fill:#ffd9de;}.cls-16,.cls-20,.cls-6{stroke:#000;}.cls-16,.cls-6{stroke-miterlimit:10;}.cls-7{fill:#ff394c;}.cls-12,.cls-8{font-size:3.22px;}.cls-12,.cls-14,.cls-8{font-family:AppleSDGothicNeo-ExtraBold-KSCpc-EUC-H, Apple SD Gothic Neo;}.cls-9{letter-spacing:-0.01em;}.cls-10{letter-spacing:0em;}.cls-11{letter-spacing:-0.02em;}.cls-13{fill:#ef3345;}.cls-14{font-size:2.72px;}.cls-15{fill:#e20e2d;}.cls-16{fill:none;}.cls-17{fill:#ff7b7b;}.cls-18{fill:#ffe6e6;}.cls-19{fill:#ff718c;}.cls-20{stroke-linecap:round;stroke-linejoin:round;}</style></defs><rect class="cls-1" x="-52.53" y="-85.36" width="494.65" height="338.61"/><path class="cls-2" d="M127.15,178.05v-2.2h17v2.2Zm8.49-10.33c4.16,0,6.72,1.54,6.72,3.65s-2.56,3.68-6.72,3.68S129,173.5,129,171.37,131.48,167.72,135.64,167.72Zm-6.33,18.2v-6.5H142v6.5ZM135.64,173c2.35,0,3.81-.64,3.81-1.59s-1.48-1.56-3.81-1.56-3.76.67-3.76,1.56S133.32,173,135.64,173Zm3.57,8.55h-7.12v2.24h7.12Z"/><path class="cls-2" d="M150.39,168.31c2.83,0,5,1.79,5,4.5s-2.14,4.56-5,4.56a4.61,4.61,0,0,1-4.92-4.56C145.47,170.1,147.6,168.31,150.39,168.31Zm9.84,10.9v6.95h-2.78V181.4h-9.66v-2.19ZM150.39,175a2.09,2.09,0,0,0,2.28-2.19,2.15,2.15,0,0,0-2.28-2.24,2.11,2.11,0,0,0-2.22,2.24A2.08,2.08,0,0,0,150.39,175Zm9.82-1v4.14h-2.78V167.31h2.78v4.42h2.54V174Z"/><path class="cls-2" d="M163.7,183.75v-2.24h17v2.24Zm8.5-5c-4.23,0-7-2.13-7-5.11s2.77-5.11,7-5.11,7,2.11,7,5.11S176.44,178.74,172.2,178.74Zm0-8c-2.54,0-4.17,1.14-4.17,2.93s1.63,2.9,4.17,2.9,4.18-1.17,4.18-2.9S174.75,170.72,172.2,170.72Z"/><path class="cls-2" d="M191.86,178.87v2.75H199v2.19H182v-2.19h7.12v-2.75h-5v-6.42h10v-1.82h-10v-2.24h12.78v6.3h-10v2h10.46v2.22Z"/><path class="cls-2" d="M205.81,183.83v-2.19h6.06v-4.42h2.79v4.42h8.16v2.19ZM221,171a45.66,45.66,0,0,1-.93,8.74c-.87-.1-1.77-.21-2.62-.36a32.25,32.25,0,0,0,.57-3.59c-3.49.22-7,.4-10.46.59-.1-.76-.23-1.56-.31-2.34l11-.32c0-.59,0-1.16,0-1.67v-.67H208v-2.26h13C221,169.68,221,170.38,221,171Z"/><path class="cls-2" d="M229.14,179.4a30.31,30.31,0,0,0,6.35-.53c.09.76.19,1.5.3,2.28a39.83,39.83,0,0,1-7.58.61c-1,0-2,0-3.05,0V169h8.58v2.2H228v8.18C228.35,179.4,228.73,179.4,229.14,179.4Zm7.58,6.74V167.31h2.79v18.83Z"/><path class="cls-2" d="M248.3,170.8h10v2.11h-3.42c.42,1.69,2.28,2.92,3.91,3.26-.41.71-.85,1.41-1.27,2.13a6.76,6.76,0,0,1-4.14-3.25,7.15,7.15,0,0,1-4.31,3.48c-.45-.7-.91-1.41-1.33-2.13,2-.55,3.65-1.76,4-3.49H248.3Zm14.64,8.09v2.18h-5c.34,1.94,3,3,5.79,3.08l-1.12,2.2c-2.51-.13-5-1.14-6.1-2.92-1,1.76-3.47,2.69-6,2.87-.36-.71-.74-1.43-1.08-2.15,2.62-.1,5.26-1.12,5.64-3.08h-4.79v-2.18ZM250.6,168h5.47v2H250.6Zm12.08,6.55v3.63h-2.76V167.31h2.76v4.91h2.58v2.28Z"/><path class="cls-2" d="M267.65,182.88l-1.58-2.19c4.12-1.93,6.76-5.54,7.14-9.15h-6v-2.28h8.94C276,174.75,273.76,179.52,267.65,182.88ZM279,186.14V167.31h2.81v18.83Z"/><path class="cls-2" d="M234,51.47c-.24-1.84-1.06-8.45-.32-8.78s3.17-1.63,4.33,0,1.56,9,1.57,9.24h0a13.89,13.89,0,0,0-.63,4.3h0a8.82,8.82,0,0,0-5.15-4Z"/><path class="cls-2" d="M227.48,54.69a4.54,4.54,0,0,1,2.69-.88A5.15,5.15,0,1,1,225.36,59"/><path class="cls-2" d="M233.43,60.82s.79-4.68-3.26-5.47-16-3.94-16.72-3.94-3,.86-1.82,2.4c1,1.29,14,5,18.16,6.44"/><path class="cls-3" d="M203.71,42.67a5.66,5.66,0,0,0-4.22-3.07s-43.81,6.53-54.57,17.29a6.64,6.64,0,0,0-1.5,2.73c14-9.45,51.86-15.11,51.86-15.11a5.68,5.68,0,0,1,4.23,3.08s35.13,72.36,36.87,85.57a34,34,0,0,0,3.84-2.88C245.35,128.43,203.71,42.67,203.71,42.67Z"/><path class="cls-4" d="M236,135.19c-11.72,10.42-46.11,19.6-60.71,21.52S130,72.56,140.72,61.8s54.56-17.29,54.56-17.29a5.68,5.68,0,0,1,4.23,3.08s41.63,85.75,36.5,87.6c0,0-27.76,10.54-55,15.5a10.16,10.16,0,0,1-7.71-1.62C148.92,131.86,143,63,143,63"/><ellipse class="cls-5" cx="223.17" cy="55.01" rx="1.66" ry="8.01" transform="translate(94.64 245.56) rotate(-69.85)"/><path class="cls-6" d="M151.84,57s6.53,33,10,33.78,51.49-11.5,51.49-15-11.91-28.77-13.45-29.94S151.84,57,151.84,57Z"/><path class="cls-7" d="M199.47,52.88l-42.6,13a1.12,1.12,0,0,1-1.44-.84L155.21,64a1.15,1.15,0,0,1,.8-1.35l42.64-13a.88.88,0,0,1,1.09.57l.43,1.41A1.06,1.06,0,0,1,199.47,52.88Z"/><text class="cls-8" transform="translate(155.05 62.05) rotate(-16.76)">Music</text><text class="cls-8" transform="translate(157.9 72.1) rotate(-16.76)">Videos</text><text class="cls-8" transform="translate(158.89 75.25) rotate(-16.76)"><tspan class="cls-9">E</tspan><tspan class="cls-10" x="1.79" y="0">xt</tspan><tspan class="cls-11" x="4.68" y="0">r</tspan><tspan x="5.83" y="0">as</tspan></text><text class="cls-8" transform="translate(157.08 69.1) rotate(-16.76)">Photos</text><text class="cls-8" transform="translate(159.84 78.69) rotate(-16.76)">Now Playing</text><text class="cls-12" transform="translate(156.31 65.46) rotate(-16.76)">Playlists</text><ellipse class="cls-13" cx="199.01" cy="111.2" rx="20.82" ry="19.17"/><path d="M199,92.53c11.21,0,20.32,8.38,20.32,18.67s-9.11,18.67-20.32,18.67-20.31-8.38-20.31-18.67S187.81,92.53,199,92.53m0-1c-11.77,0-21.31,8.81-21.31,19.67s9.54,19.67,21.31,19.67,21.32-8.81,21.32-19.67S210.79,91.53,199,91.53Z"/><path class="cls-3" d="M199,117.46c-4.13,0-7.5-3.08-7.5-6.88s3.37-6.88,7.5-6.88,7.5,3.09,7.5,6.88S203.15,117.46,199,117.46Z"/><path d="M199,104.2c3.86,0,7,2.86,7,6.38s-3.14,6.38-7,6.38-7-2.86-7-6.38,3.14-6.38,7-6.38m0-1c-4.41,0-8,3.31-8,7.38s3.59,7.38,8,7.38,8-3.3,8-7.38-3.58-7.38-8-7.38Z"/><polygon class="cls-2" points="202.31 125.28 201.32 123.04 203.75 123.31 202.31 125.28"/><polygon class="cls-2" points="211.87 107 210.89 104.76 213.32 105.03 211.87 107"/><polygon class="cls-2" points="213.79 106.23 212.81 103.99 215.24 104.26 213.79 106.23"/><rect class="cls-2" x="204.17" y="121.78" width="0.55" height="2.55" transform="translate(-32.22 92.55) rotate(-23.7)"/><rect class="cls-2" x="204.94" y="121.45" width="0.55" height="2.55" transform="translate(-32.02 92.83) rotate(-23.7)"/><polygon class="cls-2" points="185.95 114.34 186.93 116.58 184.5 116.31 185.95 114.34"/><polygon class="cls-2" points="184.03 115.11 185.01 117.35 182.58 117.08 184.03 115.11"/><text class="cls-14" transform="matrix(0.94, -0.34, 0.34, 0.94, 191.14, 100.63)">menu</text><path class="cls-15" d="M251,57.09c1,5.67-.89,10.7-4.12,11.25-2.3.38-4.69-1.63-6.2-4.87h-.09a11,11,0,0,0,.09-1.42A11.31,11.31,0,0,0,239,56.13h0a13.89,13.89,0,0,1,.63-4.3c.72-2.21,2-3.74,3.73-4C246.63,47.27,250,51.43,251,57.09Z"/><path class="cls-15" d="M240.66,62a11,11,0,0,1-.09,1.42c-.59,5-4.24,8.79-8.66,8.79a7.37,7.37,0,0,1-1.76-.21c-4-.94-7-5.06-7-10a11.85,11.85,0,0,1,.58-3.67c.52.15,1,.31,1.52.47l0,.13a4.81,4.81,0,1,0,4.8-5.14,4.51,4.51,0,0,0-2.68.88l0,.06-1.28-.3a8.06,8.06,0,0,1,5.86-2.64,7.24,7.24,0,0,1,2,.27,8.84,8.84,0,0,1,5.14,4A11.31,11.31,0,0,1,240.66,62Z"/><path class="cls-16" d="M230.15,72c-4-.94-7-5.06-7-10a11.85,11.85,0,0,1,.58-3.67"/><path class="cls-16" d="M226.05,54.47a8.06,8.06,0,0,1,5.86-2.64,7.24,7.24,0,0,1,2,.27,8.84,8.84,0,0,1,5.14,4A11.31,11.31,0,0,1,240.66,62a11,11,0,0,1-.09,1.42c-.59,5-4.24,8.79-8.66,8.79a7.37,7.37,0,0,1-1.76-.21"/><path class="cls-16" d="M239.05,56.13a13.89,13.89,0,0,1,.63-4.3c.72-2.21,2-3.74,3.73-4,3.22-.54,6.61,3.62,7.57,9.28s-.89,10.7-4.12,11.25c-2.3.38-4.69-1.63-6.2-4.87"/><path class="cls-16" d="M227.35,54.71a4.51,4.51,0,0,1,2.68-.88,5.15,5.15,0,1,1-4.8,5.14"/><path class="cls-16" d="M233.3,60.84s.79-4.68-3.27-5.48c-.69-.14-1.63-.34-2.7-.59l-1.28-.3c-5.14-1.22-12.23-3-12.73-3-.67,0-3,.86-1.83,2.4.66.88,7,2.88,12.26,4.54.52.15,1,.31,1.52.47,1.8.56,3.37,1.06,4.4,1.43"/><path class="cls-16" d="M234.16,51.83s0-.17-.06-.46c-.25-1.84-1.06-8.45-.32-8.78s3.17-1.63,4.32,0,1.58,9.24,1.58,9.24"/><path class="cls-16" d="M234.84,41.77S234.07,22.32,216,24.34s-17.66,15.54-17.66,15.54"/><path class="cls-16" d="M211.18,52.48s-3.15-.71-3.82-2.11"/><path class="cls-16" d="M229.51,71.86c5.15,14.58,5.24,24.46,7.07,27.31"/><path class="cls-16" d="M212.9,24.83s-6.4,19.58,24.91,9.59-6.53-16.9-9.79-15.27c0,0-29.87-1.78-11.43,26.73Q219,49.66,221,53.25"/><path class="cls-17" d="M239.25,111.2s.1,2.66-.86,1.85-1.25-8.22-1.25-8.22l0-.22.89-.21Z"/><path class="cls-18" d="M237.91,99.17l.67,5.09-.59.14-.89.21-.92.22-.86-5.18S236,97.73,237.91,99.17Z"/><path class="cls-16" d="M237.1,104.61l-.92.22-.86-5.18s.66-1.92,2.59-.48l.67,5.09-.59.14Z"/><path class="cls-16" d="M237.14,104.83s.29,7.4,1.25,8.22.86-1.85.86-1.85L238,104.4"/><ellipse class="cls-19" cx="248.39" cy="57.11" rx="1.78" ry="6.49" transform="translate(-6.45 61.39) rotate(-13.91)"/><circle class="cls-20" cx="256" cy="91.53" r="14.45"/><circle class="cls-20" cx="252.41" cy="86.98" r="2.24"/><circle class="cls-20" cx="261.52" cy="90.48" r="2.24"/><path class="cls-20" d="M264.2,96.63a9.82,9.82,0,0,1-17.88-6"/><path class="cls-16" d="M240.22,130.39C228.5,140.8,194.11,150,179.51,151.9S134.16,67.76,144.92,57s54.57-17.29,54.57-17.29a5.63,5.63,0,0,1,4.22,3.07s41.64,85.75,36.51,87.61c0,0-27.76,10.54-55.05,15.49a10.18,10.18,0,0,1-7.72-1.62c-24.32-17.2-30.22-86.11-30.22-86.11"/></svg>