<svg id="레이어_1" data-name="레이어 1" xmlns="http://www.w3.org/2000/svg" viewBox="0 0 390 200"><defs><style>.cls-1{fill:#fcfcfc;}.cls-2{fill:#ddd;}.cls-3,.cls-7{fill:#fff;}.cls-4{fill:#efefef;}.cls-5{fill:none;}.cls-5,.cls-7{stroke:#000;}.cls-5,.cls-7,.cls-9{stroke-miterlimit:10;}.cls-6{fill:#f7f7f7;}.cls-8{fill:#070705;}.cls-9{stroke:#fff;}.cls-10{fill:#e5e5e3;}.cls-11{fill:#fffde3;opacity:0.27;}</style></defs><rect class="cls-1" x="-7.03" y="-6.27" width="399.97" height="206.27"/><path class="cls-2" d="M260.58,46.34a3.65,3.65,0,0,1-3.79-3.47c0-1.81,1.6-3.13,3.79-3.13s3.8,1.32,3.8,3.13A3.65,3.65,0,0,1,260.58,46.34Z"/><path d="M260.58,40.24c1.64,0,3.3.91,3.3,2.63a3.31,3.31,0,0,1-6.59,0c0-1.72,1.66-2.63,3.29-2.63m0-1c-2.37,0-4.29,1.44-4.29,3.63a4.31,4.31,0,0,0,8.59,0c0-2.19-1.92-3.63-4.3-3.63Z"/><path class="cls-2" d="M253.72,46.34c-1.78,0-3.44-1.34-3.48-2.8a2.52,2.52,0,0,1,.7-1.89,3,3,0,0,1,2.18-.87,3.15,3.15,0,0,1,.53,0c1.44.22,3.13,1.08,3.13,2.76A2.92,2.92,0,0,1,253.72,46.34Z"/><path d="M253.12,41.28h0a3.4,3.4,0,0,1,.45,0c1.25.2,2.71.91,2.71,2.27a2.43,2.43,0,0,1-2.56,2.26c-1.5,0-2.95-1.13-3-2.31A2.07,2.07,0,0,1,251.3,42a2.5,2.5,0,0,1,1.82-.72m0-1a3.2,3.2,0,0,0-3.39,3.28c.06,1.79,2,3.28,4,3.28a3.42,3.42,0,0,0,3.56-3.26c0-1.8-1.62-2.95-3.56-3.25a3,3,0,0,0-.6,0Z"/><path class="cls-2" d="M248.16,52.32a3.72,3.72,0,0,1-3.41-3.68,3.83,3.83,0,0,1,.94-2.85,2.77,2.77,0,0,1,2-.81h.37a3.68,3.68,0,0,1,3.45,3.67,3.51,3.51,0,0,1-3.34,3.66Z"/><path d="M247.73,45.48h.33a3.2,3.2,0,0,1,3,3.17,3,3,0,0,1-2.88,3.16h0a3.26,3.26,0,0,1-2.93-3.19,3.43,3.43,0,0,1,.81-2.5,2.26,2.26,0,0,1,1.68-.65m0-1c-2.23,0-3.55,1.78-3.48,4.18a4.23,4.23,0,0,0,3.9,4.16h.06a4,4,0,0,0,3.84-4.16,4.17,4.17,0,0,0-3.9-4.16,3,3,0,0,0-.42,0Z"/><path class="cls-2" d="M246.91,59.93a3.4,3.4,0,1,1,3.4-3.4A3.41,3.41,0,0,1,246.91,59.93Z"/><path d="M246.9,53.63a2.9,2.9,0,1,1-2.9,2.9,2.9,2.9,0,0,1,2.9-2.9m0-1a3.9,3.9,0,1,0,3.91,3.9,3.9,3.9,0,0,0-3.91-3.9Z"/><path class="cls-3" d="M252.61,65.94a4.15,4.15,0,0,1-4-3.68c0-1.93,1.94-3.13,3.74-3.13a3.4,3.4,0,0,1,3.4,3.4A3.23,3.23,0,0,1,252.61,65.94Z"/><path d="M252.39,59.63a2.9,2.9,0,0,1,2.9,2.9,2.71,2.71,0,0,1-2.68,2.91,3.67,3.67,0,0,1-3.46-3.18c0-1.62,1.68-2.63,3.24-2.63m0-1c-2.16,0-4.24,1.48-4.24,3.63s2.31,4.18,4.46,4.18a3.72,3.72,0,0,0,3.68-3.91,3.91,3.91,0,0,0-3.9-3.9Z"/><path class="cls-3" d="M260.3,67.8a3.84,3.84,0,0,1-3.72-3.58,3.67,3.67,0,0,1,1.05-2.73,3.71,3.71,0,0,1,2.66-1.15,3.84,3.84,0,0,1,3.71,3.9A3.48,3.48,0,0,1,263,66.71a3.57,3.57,0,0,1-2.54,1.09Z"/><path d="M260.29,60.84a3.34,3.34,0,0,1,3.21,3.41,3,3,0,0,1-.91,2.11,3,3,0,0,1-2.18.94h-.09a3.33,3.33,0,0,1-3.24-3.1,3.26,3.26,0,0,1,3.21-3.36m0-1a4.25,4.25,0,0,0-4.21,4.4,4.34,4.34,0,0,0,4.21,4.06h.12a4.15,4.15,0,0,0,4.09-4.06,4.32,4.32,0,0,0-4.21-4.4Z"/><path class="cls-3" d="M267.09,64.83a3.7,3.7,0,0,1,0-7.39,3.7,3.7,0,1,1,0,7.39Z"/><path d="M267.09,57.94a3.2,3.2,0,1,1,0,6.39,3.2,3.2,0,0,1,0-6.39m0-1a4.2,4.2,0,0,0,0,8.39,4.2,4.2,0,1,0,0-8.39Z"/><path class="cls-3" d="M270,57.8a3.7,3.7,0,1,1,3.9-3.68,3.45,3.45,0,0,1-1,2.5,4.1,4.1,0,0,1-2.92,1.18Z"/><path d="M270,50.91a3.34,3.34,0,0,1,3.4,3.22,2.92,2.92,0,0,1-.83,2.14,3.6,3.6,0,0,1-2.57,1,3.2,3.2,0,1,1,0-6.39m0-1a4.2,4.2,0,1,0,0,8.39h0a4.2,4.2,0,0,0,4.39-4.19,4.35,4.35,0,0,0-4.4-4.2Z"/><path class="cls-3" d="M267.09,50.76a3.7,3.7,0,1,1,0-7.39,4.28,4.28,0,0,1,4.22,3.89C271.31,49.36,269.13,50.76,267.09,50.76Z"/><path d="M267.09,43.87a3.76,3.76,0,0,1,3.72,3.39c0,1.8-1.92,3-3.72,3a3.2,3.2,0,1,1,0-6.39m0-1a4.2,4.2,0,1,0,0,8.39c2.43,0,4.72-1.68,4.72-4a4.76,4.76,0,0,0-4.72-4.39Z"/><path class="cls-3" d="M258.6,64.2a10.77,10.77,0,1,1,11.2-10.77A11,11,0,0,1,258.6,64.2Z"/><path d="M258.6,43.17a10.27,10.27,0,1,1-10.7,10.26,10.5,10.5,0,0,1,10.7-10.26m0-1a11.27,11.27,0,1,0,11.7,11.26,11.49,11.49,0,0,0-11.7-11.26Z"/><ellipse class="cls-4" cx="258.05" cy="51.96" rx="10.22" ry="9.17"/><path class="cls-5" d="M254.26,51s3.45-.62,4.06,2.4"/><path class="cls-5" d="M257.85,59.5s3.09-1,2.7,2"/><path class="cls-5" d="M264.88,50.5s2.75.11,2.89,2.42"/><path class="cls-5" d="M254.36,44.85s3-.89,2.92,1.8"/><path class="cls-5" d="M248.89,56.69a1.87,1.87,0,0,1,2.26,1.71"/><path class="cls-6" d="M281.34,128.11l-3.52,5.81a58.47,58.47,0,0,0-13.89,1.35c-31.78,6.81-42.1-.7-42.1-.7s-17-8.2-32.59-2.61-15.39,4.36-43.32.52c-10.38-1.43-17.81.28-23,3l-16-24.29,16.6,5.41,4.25-11.17,8.5,10.83,2.64-6.46s10.32,6.48,10.93,7.52,8.5-2.46,8.5-2.46l2,3.49,3-7.33,4.45,11.35,7.9-7.34,7.08,6.48,2.23-6,.48-.56,11.66,7.54,10.12-15.71,6.48,11.7,11.54-3.85,3.24,4,8.9-11.87,3.24,5.93,14.58-9.07,6.47,15.88,11.14-3.84.81,11Z"/><path class="cls-5" d="M123.47,135.52l-16-28.16,16.6,6.27,4.25-12.95,8.5,12.55,2.63-7.49s10.32,7.52,10.93,8.72,8.5-2.85,8.5-2.85l2,4,3-8.5,4.45,13.15,7.9-8.5,7.08,7.51,2.23-6.9"/><polyline class="cls-5" points="185.56 111.41 197.71 120.52 207.83 102.3 214.3 115.86 225.84 111.41 229.08 116.06 237.99 102.3 241.22 109.18 255.8 98.66 262.28 117.08 273.41 112.62 274.22 125.37 281.91 126.99 278.39 133.73"/><path class="cls-5" d="M112.08,149.46s6.48-21.86,34.41-17.41,27.74,5.89,43.32-.59,32.59,3,32.59,3,10.32,8.71,42.1.81c10.85-2.69,19.69-1.66,26.63.87"/><path class="cls-4" d="M137.39,80c.61,1.66,1.67,3.71,3.36,3.45,1.93-.29,2-2.32,1.41-4.75"/><path class="cls-7" d="M140,83.48s6.62,30-.71,48.74l3.61-.15c3.85-33.59-1.85-48.86-1.85-48.86"/><path class="cls-5" d="M137,80c.61,1.66,1.67,3.72,3.36,3.46,1.93-.3,2-2.33,1.4-4.75"/><path class="cls-5" d="M143.66,62.79a13,13,0,0,1,1.88,4.74c1.12,5.94-1.82,11.49-6.56,12.38s-9.5-3.2-10.62-9.14a13.15,13.15,0,0,1-.23-3"/><path class="cls-5" d="M144.22,63.73s-5-11.38-7.38-10.08-1.12,10.47-1.23,9.87-3.49-5.28-5.15-5.82-2.35,8.59-2.33,10"/><path class="cls-5" d="M130.43,65.46s6-1.77,6.84,4.86a2.16,2.16,0,0,1-1.74,1.82c-1.66.46,2.19.81,2.19.81"/><circle cx="139.99" cy="67.53" r="1.03"/><circle class="cls-8" cx="134.08" cy="69.42" r="1.03"/><path class="cls-5" d="M138.56,64c-.48-.41,1.31-.95,2.3-.1"/><path class="cls-5" d="M135.94,75.48s5.36,0,5.29-2.67"/><path class="cls-7" d="M144.1,103.64c.56-.25,3-7.7,11-7.11,0,0,.54,8.33-9.95,10.2l-.91,0"/><path class="cls-7" d="M141.81,94.81a16.61,16.61,0,0,0-7.55-3.19c-4.33-.55,3.39,7.14,7.7,4.51"/><path class="cls-5" d="M135.43,57.76s-.3-2.83-1.37-3.65"/><path class="cls-5" d="M135.43,63.13s-1-5.38-1.63-5.78"/><path class="cls-5" d="M131.89,58.7c-.2-.18-.56-2.89-.95-3"/><circle class="cls-3" cx="134.06" cy="53.76" r="0.41"/><path d="M134.06,53.35h0a.41.41,0,0,0,0,.81h0a.41.41,0,0,0,0-.81Z"/><circle class="cls-3" cx="130.92" cy="55.3" r="0.41"/><path d="M130.92,54.89h0a.41.41,0,0,0,0,.81h0a.41.41,0,0,0,0-.81Z"/><circle class="cls-3" cx="133.59" cy="57.36" r="0.41"/><path d="M133.59,57h0a.41.41,0,0,0,0,.81h0a.41.41,0,0,0,0-.81Z"/><path class="cls-3" d="M249.11,138.4c-.62-.62-.8-4.08-.56-7.1l.06-.81-.75.31a6.09,6.09,0,0,1-2.36.45c-4.31,0-9.29-3.84-11.07-7.28a4.09,4.09,0,0,1-.44-3.34c10.39,3.43,13,6.52,13,6.55l.32.38.38-.31c.09-.07,8.82-6.92,17.22-6.92a13.23,13.23,0,0,1,4.33.69c-1.09,2-5.81,9.93-14,9.93a15.18,15.18,0,0,1-4.69-.79l-.07,0-.18,0a.72.72,0,0,0-.61.33c-.71,1,.38,5.57,1.17,8Z"/><path d="M265,119.83v1a12.73,12.73,0,0,1,3.6.49c-1.46,2.54-5.94,9.13-13.32,9.13a14.46,14.46,0,0,1-4.53-.77,1.45,1.45,0,0,0-.41-.06,1.24,1.24,0,0,0-1,.54,1.91,1.91,0,0,0-.16.32l.07-.76-1.51.62a5.7,5.7,0,0,1-2.17.41c-4.13,0-8.91-3.69-10.62-7a4.26,4.26,0,0,1-.57-2.47c9.78,3.29,12.32,6.2,12.33,6.22l.63.77.77-.62c.09-.06,8.67-6.81,16.91-6.81v-1M249,132.3a29.31,29.31,0,0,0,1.19,5.6h-.8a16.67,16.67,0,0,1-.39-5.6m16-12.47c-8.68,0-17.53,7-17.53,7s-2.6-3.23-13.66-6.83c-2.53,3.56,5.25,11.72,11.74,11.72a6.51,6.51,0,0,0,2.55-.49s-.54,6.83.9,7.64h2.6c-1-2.79-2.2-8.28-1.26-8.28h.1a15.4,15.4,0,0,0,4.84.82c9.87,0,14.75-10.7,14.75-10.7a13.49,13.49,0,0,0-5-.92Z"/><path class="cls-3" d="M249.5,122.7a12.63,12.63,0,0,1-12.62-12.62c0-5.55,5.22-8.07,10.75-10.75,1.28-.62,2.59-1.26,3.82-1.93a3.52,3.52,0,0,1,1.7-.45c3.41,0,7.11,5.45,9,13.25a8.51,8.51,0,0,1-1.8,7.36A14.23,14.23,0,0,1,249.5,122.7Z"/><path d="M253.15,97.45h0c3.13,0,6.7,5.41,8.5,12.87a8,8,0,0,1-1.71,6.93,13.7,13.7,0,0,1-10.44,5,12.13,12.13,0,0,1-12.12-12.12c0-5.23,5.08-7.69,10.47-10.3,1.28-.62,2.6-1.26,3.84-1.94a3,3,0,0,1,1.46-.39m0-1a3.9,3.9,0,0,0-1.94.52c-6.36,3.47-14.83,5.87-14.83,13.11A13.11,13.11,0,0,0,249.5,123.2c7.24,0,14.81-6.07,13.12-13.12-1.88-7.82-5.65-13.63-9.47-13.63Z"/><path class="cls-7" d="M249.62,104.88s1.36,6,0,7.55-.56,2.63,0,2.27"/><path class="cls-9" d="M246,108.2a1.21,1.21,0,0,1,.15.6,1.26,1.26,0,1,1-2.51,0,1.21,1.21,0,0,1,.15-.6"/><path class="cls-9" d="M256.39,108a1.21,1.21,0,0,1,.15.6,1.26,1.26,0,0,1-2.52,0,1.22,1.22,0,0,1,.16-.6"/><path class="cls-7" d="M247.42,118s7.18-1,7.6-2.33-1.07,5.87-5.08,5"/><line class="cls-7" x1="242.78" y1="108.2" x2="247.03" y2="108.2"/><line class="cls-7" x1="253.16" y1="107.97" x2="257.41" y2="107.97"/><line class="cls-7" x1="251.62" y1="93.7" x2="251.26" y2="88.13"/><line class="cls-7" x1="262.86" y1="100.8" x2="267.91" y2="97.84"/><path class="cls-7" d="M250.88,127.81s10.25-4.66,13.42-4.61"/><polyline class="cls-10" points="177.19 47.73 178.41 55.19 161.45 56.17 160.68 47.88"/><polygon class="cls-6" points="163.14 79.05 182.43 79.57 199.25 76.82 215.88 70.42 227.66 89.5 222.77 114.79 213.15 123.55 199.4 129.48 181.94 127.55 173.2 123.64 160.71 102.47 163.14 79.05"/><path class="cls-11" d="M179.83,78.44s1.93,11.75,9.71,10.67,13.58-3.28,11.38-13.62-11.3-6.77-11.3-6.77S180.32,68.58,179.83,78.44Z"/><polygon class="cls-5" points="161.99 75.65 182.49 76.2 200.35 73.28 218.03 66.49 230.54 86.75 225.34 113.63 215.13 122.93 200.51 129.23 181.97 127.18 172.68 123.02 159.41 100.53 161.99 75.65"/><path class="cls-5" d="M201.84,126.67c.51-.48,4.21-5.39,4.21-5.39l14-6.21"/><polyline class="cls-5" points="198.6 127.2 193.53 123.72 176.23 123.22"/><line class="cls-5" x1="199.59" y1="74.59" x2="194.17" y2="121.66"/><line class="cls-5" x1="183.77" y1="77.18" x2="205.42" y2="119.82"/><line class="cls-5" x1="221.86" y1="79.15" x2="206.02" y2="98.39"/><line class="cls-5" x1="164.52" y1="80.33" x2="161.54" y2="99.21"/><line class="cls-5" x1="174.54" y1="120.89" x2="189.54" y2="114.85"/><line class="cls-5" x1="195.57" y1="113.86" x2="200.34" y2="113.08"/><line class="cls-5" x1="195.82" y1="123.35" x2="204.27" y2="121.96"/><line class="cls-5" x1="204.91" y1="112.34" x2="222.03" y2="111.33"/><line class="cls-5" x1="164.15" y1="93.63" x2="176.37" y2="100.96"/><line class="cls-5" x1="182.49" y1="76.2" x2="187.19" y2="67.81"/><line class="cls-5" x1="200.35" y1="73.28" x2="193.55" y2="66.77"/><line class="cls-5" x1="218.03" y1="66.49" x2="198.99" y2="64.97"/><line class="cls-5" x1="161.99" y1="75.65" x2="179.04" y2="68.23"/><path class="cls-5" d="M198,58.87l1,6.1s-5.93,3.19-20,3.26l-1-6.1"/><polyline class="cls-5" points="163.65 56.85 173.59 61.59 189.1 61.5 202.69 57.25 211.5 50.14 210.07 41.37 198 37.34 185.87 37.96 173 40.45 162.11 47.45 163.7 57.17"/><polyline class="cls-5" points="162.11 47.45 178.71 46.24 185.87 37.96 194.98 44.42 210.07 41.37"/><line class="cls-5" x1="194.98" y1="44.42" x2="178.71" y2="46.24"/><polyline class="cls-5" points="178.84 47.06 179.84 56.36 188.56 61.59 196.44 53.32 195.75 45.15"/><line class="cls-5" x1="197.07" y1="53.21" x2="210.24" y2="49.98"/><line class="cls-5" x1="178.58" y1="56.24" x2="164.62" y2="56.63"/><path class="cls-5" d="M194.62,46.18a35.47,35.47,0,0,1-14.79,1.7"/><path class="cls-5" d="M195.16,53.53a36.76,36.76,0,0,1-14,2.29"/><path class="cls-5" d="M171.63,60c.18-.09,7.9-1.87,7.9-1.87"/><line class="cls-5" x1="203.77" y1="55.09" x2="196.44" y2="55.34"/><polyline class="cls-1" points="201.21 74.64 217.12 67.83 222.32 76.27 204.94 97.41"/><path class="cls-6" d="M180,49s9.2.36,15-2.46l.7,6.32S185.35,56.14,181,55.3"/><polyline class="cls-4" points="179.05 124.52 181.92 126.11 197.92 128.22 192.78 124.33"/><path d="M138.1,148.08v-1.83h9.43v1.83Zm4.76,5.86c-2.33,0-3.93-1.26-3.93-2.82s1.58-2.78,3.93-2.78,3.9,1.25,3.9,2.78S145.15,153.94,142.86,153.94Zm2.49,5.67c-3.46,0-5.6-1-5.6-2.71s2.14-2.66,5.6-2.66,5.56,1,5.56,2.66S148.8,159.61,145.35,159.61Zm-4.91-15.83h4.85v1.82h-4.85Zm2.42,8.45c.87,0,1.52-.49,1.52-1.11s-.65-1.09-1.52-1.09-1.51.51-1.51,1.09S142,152.23,142.86,152.23Zm-.66,4.69c0,.54,1.13.89,3.15.89s3.16-.37,3.16-.89-1.13-.86-3.16-.86S142.2,156.41,142.2,156.92Zm10.6-5.07h-1.93v2.36h-2.4V143.45h2.4v3.11h1.93v1.94h-1.93v1.42h1.93Z"/><path d="M159.94,159.66V154h-6.07v-1.91H168.5V154h-6.18v5.63Zm7-8.74c-2.47-.36-4.91-1.78-5.74-3.56-.88,1.78-3.28,3.23-5.73,3.58l-.94-1.93c2.76-.29,5.41-2,5.41-4.47v-.74h2.51v.74c0,2.51,2.63,4.11,5.41,4.42Z"/><path d="M178.1,153.39v2.36h6.12v1.89H169.59v-1.89h6.13v-2.36h-4.29v-5.52H180V146.3h-8.6v-1.92h11v5.41h-8.58v1.69h9v1.91Z"/><path d="M190.1,157.66v-1.89h5.21V152h2.4v3.8h7v1.89Zm13.06-11.08a39.41,39.41,0,0,1-.8,7.52c-.74-.09-1.53-.18-2.25-.31a27.11,27.11,0,0,0,.49-3.09l-9,.51c-.09-.65-.2-1.34-.27-2l9.43-.27c0-.51,0-1,0-1.44v-.58H192V145h11.15C203.14,145.49,203.16,146.09,203.16,146.58Z"/><path d="M210.16,153.84a26.19,26.19,0,0,0,5.47-.45c.07.65.16,1.29.25,2a33.84,33.84,0,0,1-6.52.53c-.89,0-1.74,0-2.62,0V144.9h7.38v1.89h-5v7Zm6.52,5.8V143.45h2.4v16.19Z"/><path d="M226.65,146.45h8.57v1.82h-2.94a4.38,4.38,0,0,0,3.36,2.79c-.34.62-.73,1.22-1.09,1.84a5.81,5.81,0,0,1-3.56-2.8,6.12,6.12,0,0,1-3.71,3c-.38-.6-.78-1.22-1.14-1.84,1.72-.47,3.14-1.5,3.47-3h-3Zm12.59,7v1.87H235c.29,1.67,2.58,2.58,5,2.65l-1,1.89c-2.16-.11-4.28-1-5.25-2.5-.87,1.5-3,2.3-5.14,2.47-.31-.62-.64-1.24-.93-1.86,2.26-.09,4.53-1,4.85-2.65h-4.12v-1.87ZM228.63,144h4.7v1.7h-4.7ZM239,149.63v3.12h-2.38v-9.3H239v4.22h2.22v2Z"/><path d="M243.29,156.84,241.93,155a10.28,10.28,0,0,0,6.14-7.87h-5.14v-2h7.69C250.47,149.85,248.55,154,243.29,156.84Zm9.8,2.8V143.45h2.42v16.19Z"/></svg>